<?xml version="1.0" standalone="no"?>
<!DOCTYPE svg PUBLIC "-//W3C//DTD SVG 20010904//EN"
 "http://www.w3.org/TR/2001/REC-SVG-20010904/DTD/svg10.dtd">
<svg version="1.0" xmlns="http://www.w3.org/2000/svg"
 width="1384.000000pt" height="1384.000000pt" viewBox="0 0 1384.000000 1384.000000"
 preserveAspectRatio="xMidYMid meet">
<metadata>
Created by potrace 1.14, written by Peter Selinger 2001-2017
</metadata>
<g transform="translate(0.000000,1384.000000) scale(0.100000,-0.100000)"
fill="#000000" stroke="none">
<path d="M6618 13835 c-2 -1 -59 -6 -128 -9 -69 -4 -138 -9 -155 -11 -16 -2
-62 -6 -100 -10 -39 -3 -81 -7 -95 -9 -14 -3 -52 -7 -85 -11 -75 -8 -307 -44
-381 -59 -12 -2 -37 -7 -55 -10 -134 -22 -471 -104 -644 -156 -38 -12 -77 -23
-85 -25 -47 -12 -302 -99 -405 -138 -745 -283 -1401 -666 -2001 -1168 -187
-156 -237 -202 -449 -414 -239 -237 -357 -369 -520 -575 -32 -41 -62 -77 -65
-80 -11 -9 -166 -224 -242 -335 -130 -189 -263 -407 -378 -620 -41 -75 -200
-392 -200 -399 0 -2 -16 -38 -35 -79 -19 -41 -35 -77 -35 -81 0 -3 -13 -35
-30 -71 -16 -36 -30 -71 -30 -78 0 -7 -4 -17 -9 -22 -9 -10 -16 -29 -97 -255
-38 -108 -150 -466 -159 -510 -2 -8 -12 -51 -24 -96 -49 -190 -112 -509 -136
-679 -3 -23 -7 -50 -9 -60 -2 -11 -7 -51 -11 -90 -4 -38 -9 -78 -11 -89 -2
-10 -6 -51 -9 -90 -4 -39 -8 -84 -10 -101 -27 -206 -27 -886 0 -1175 11 -115
20 -202 31 -280 3 -25 8 -61 10 -80 19 -147 94 -552 114 -615 5 -16 12 -43 15
-60 3 -16 14 -64 25 -105 12 -41 23 -84 25 -95 44 -195 235 -727 360 -1005 65
-146 214 -440 269 -534 25 -43 46 -79 46 -81 0 -11 136 -230 239 -385 149
-226 294 -419 486 -649 25 -30 24 -28 124 -141 107 -121 420 -432 531 -530 47
-41 87 -77 90 -80 61 -61 371 -304 530 -416 193 -136 445 -295 615 -389 118
-65 160 -87 260 -138 230 -116 341 -165 614 -273 211 -84 588 -208 694 -229 9
-2 21 -6 25 -9 5 -3 19 -7 33 -10 13 -3 101 -23 194 -45 94 -22 190 -43 215
-46 24 -4 47 -8 51 -10 3 -2 19 -6 35 -9 57 -9 219 -36 239 -40 25 -4 96 -14
155 -21 25 -3 63 -7 85 -10 22 -2 67 -7 100 -10 33 -4 78 -8 100 -10 259 -27
922 -27 1170 0 22 2 69 7 105 10 94 9 129 13 180 20 25 4 61 8 80 11 70 9 151
22 215 34 28 5 66 12 85 15 84 13 115 20 290 60 151 35 261 63 385 99 6 1 30
8 55 15 176 49 612 209 800 294 185 83 320 149 480 234 71 37 253 140 294 166
11 7 69 43 130 81 316 196 692 481 971 735 68 62 409 404 465 466 50 55 173
197 205 236 11 13 38 47 61 74 22 28 80 102 127 165 48 63 91 120 96 126 5 6
56 80 113 165 236 348 437 710 613 1104 99 222 215 539 294 800 27 91 88 316
96 354 2 9 9 39 15 66 19 84 20 88 35 160 8 39 16 79 19 90 2 11 7 40 11 65 4
25 9 54 11 65 7 33 33 197 38 235 2 19 7 60 11 90 4 30 8 65 10 78 2 13 7 53
10 90 3 37 8 87 10 112 27 287 27 908 1 1165 -3 22 -7 69 -11 105 -6 65 -9 87
-20 170 -3 25 -8 63 -10 85 -3 22 -12 81 -20 130 -8 50 -17 108 -21 130 -5 34
-16 91 -59 300 -3 11 -21 83 -40 160 -19 77 -37 149 -40 160 -44 186 -197 623
-313 895 -294 690 -703 1331 -1216 1905 -85 95 -394 407 -486 491 -381 345
-854 687 -1265 914 -33 18 -85 46 -115 63 -236 131 -640 312 -920 412 -87 31
-368 124 -390 129 -8 2 -22 6 -30 9 -24 11 -451 118 -489 123 -18 2 -36 6 -40
8 -3 3 -27 7 -51 11 -25 3 -54 9 -65 12 -11 3 -29 7 -40 9 -11 1 -47 7 -80 12
-33 6 -76 13 -95 16 -19 3 -44 7 -55 10 -11 2 -49 7 -85 11 -36 4 -67 8 -70
10 -3 2 -39 6 -80 10 -41 3 -86 8 -100 10 -14 2 -65 7 -115 10 -49 4 -108 9
-130 12 -47 5 -742 12 -747 8z"/>
</g>
</svg>
