<?xml version="1.0" encoding="UTF-8" standalone="no"?>
<svg
   viewBox="0 0 500 500"
   version="1.1"
   id="svg1614"
   sodipodi:docname="social2.svg"
   inkscape:version="1.1.1 (3bf5ae0d25, 2021-09-20)"
   xmlns:inkscape="http://www.inkscape.org/namespaces/inkscape"
   xmlns:sodipodi="http://sodipodi.sourceforge.net/DTD/sodipodi-0.dtd"
   xmlns="http://www.w3.org/2000/svg"
   xmlns:svg="http://www.w3.org/2000/svg">
  <defs
     id="defs1618" />
  <sodipodi:namedview
     id="namedview1616"
     pagecolor="#ffffff"
     bordercolor="#666666"
     borderopacity="1.0"
     inkscape:pageshadow="2"
     inkscape:pageopacity="0.0"
     inkscape:pagecheckerboard="0"
     showgrid="false"
     inkscape:zoom="1.3350176"
     inkscape:cx="230.70857"
     inkscape:cy="379.77027"
     inkscape:window-width="1271"
     inkscape:window-height="728"
     inkscape:window-x="79"
     inkscape:window-y="0"
     inkscape:window-maximized="0"
     inkscape:current-layer="svg1614"
     inkscape:snap-nodes="false" />
  <g
     id="freepik--background-complete--inject-4">
    <path
       d="M 454.25,173.69 H 342.11 c 0,0 11.12,-30.37 28.23,-30.37 17.11,0 22.47,21 22.47,21 0,0 11.55,-11.38 21,-11.38 9.45,0 17.73,15 17.73,15 0,0 13.46,-8.09 22.71,5.75 z"
       style="fill:#ebebeb;stroke:#000000;stroke-width:0.1;stroke-miterlimit:4;stroke-dasharray:none;stroke-opacity:1"
       id="path1222" />
    <path
       d="m 391.48,68.77 h -52.4 c 0,0 11.71,-17 20.93,-17 9.22,0 11.99,11.35 11.99,11.35 0,0 6.51,-5.28 12.55,-4.34 6.04,0.94 6.93,9.99 6.93,9.99 z"
       style="fill:#ebebeb;stroke:#000000;stroke-width:0.1;stroke-miterlimit:4;stroke-dasharray:none;stroke-opacity:1"
       id="path1224" />
    <path
       d="M 149.79,285.56 H 97.38 c 0,0 11.71,-17 20.94,-17 9.23,0 12,11.31 12,11.31 0,0 6.51,-5.28 12.54,-4.34 6.03,0.94 6.93,10.03 6.93,10.03 z"
       style="fill:#ebebeb;stroke:#000000;stroke-width:0.1;stroke-miterlimit:4;stroke-dasharray:none;stroke-opacity:1"
       id="path1226" />
    <path
       d="M 147.83,164.65 H 45.75 c 0,0 14,-31.21 28.94,-33.16 14.94,-1.95 22.1,23.19 22.1,23.19 0,0 9.65,-8.89 17.23,-8.89 7.58,0 13.44,11.7 13.44,11.7 0,0 15.17,-8.01 20.37,7.16 z"
       style="fill:#ebebeb;stroke:#000000;stroke-width:0.2;stroke-miterlimit:4;stroke-dasharray:none;stroke-opacity:1"
       id="path1228" />
    <path
       d="m 219.58,87.44 h -69 c 0,0 11.85,-22.61 24.7,-22.94 12.85,-0.33 19.6,17.12 19.6,17.12 0,0 20.03,-16.04 24.7,5.82 z"
       style="fill:#ebebeb;stroke:#000000;stroke-width:0.2;stroke-miterlimit:4;stroke-dasharray:none;stroke-opacity:1"
       id="path1230" />
    <path
       d="m 383.73,303.64 h -69 c 0,0 11.89,-22.64 24.74,-22.94 12.85,-0.3 19.6,17.11 19.6,17.11 0,0 19.99,-16.04 24.66,5.83 z"
       style="fill:#ebebeb;stroke:#000000;stroke-width:0.1;stroke-miterlimit:4;stroke-dasharray:none;stroke-opacity:1"
       id="path1232" />
  </g>
  <g
     id="freepik--Shadow--inject-4"
     style="fill:#b3b3b3;fill-opacity:1;stroke:#000000;stroke-width:0.2;stroke-miterlimit:4;stroke-dasharray:none;stroke-opacity:1">
    <ellipse
       cx="250"
       cy="453.14001"
       rx="129.16"
       ry="13.85"
       style="fill:#e1e1e1;fill-opacity:1;stroke:#000000;stroke-width:0.2;stroke-miterlimit:4;stroke-dasharray:none;stroke-opacity:1"
       id="ellipse1235" />
  </g>
  <g
     id="freepik--Plants--inject-4"
     style="display:inline">
    <path
       d="m 177.1,364.43 c -5,0.18 -10.59,0.46 -14.74,-2.79 -3.83,-3 -7.24,-7.46 -6.74,-12.59 0.15,-1.46 0.48,-2.37 2,-1.74 2.39,0.95 4.23,3.58 5.88,5.43 a 51,51 0 0 0 6.95,6.59 c 1.78,1.37 3.7,2.55 5.52,3.87 0.23,0.16 0.46,0.33 0.68,0.51 l 0.26,0.19 h 0.14 a 0.27,0.27 0 0 1 0.21,0.11 0.32,0.32 0 0 1 0,0.09 0.26,0.26 0 0 1 -0.16,0.33 z"
       style="fill:#37474f"
       id="path1238" />
    <path
       d="m 177.34,364.1 c -4.4,-0.08 -9.15,0.12 -12.67,-2.87 a 20.35,20.35 0 0 1 -4.09,-5 c -0.5,-0.83 -2,-3.3 -1.4,-4.28 1.15,-1.78 6.39,5.47 7.12,6.16 a 21.45,21.45 0 0 0 9.7,5.09 c 0.23,0.16 0.46,0.33 0.68,0.51 a 23.93,23.93 0 0 1 -7.3,-2.81 c -3.12,-1.86 -4.86,-4.62 -7.31,-7.19 -0.52,-0.56 -2.12,-2.43 -2.72,-1.26 -0.39,0.77 1.08,3.18 1.4,3.7 a 20.41,20.41 0 0 0 3.86,4.72 c 3.51,3.07 8.24,3 12.68,3.14 a 0.32,0.32 0 0 1 0.05,0.09 z"
       style="fill:#ffffff"
       id="path1240" />
    <path
       d="m 179.86,367.48 -0.12,0.58 v 0 a 0.13,0.13 0 0 1 -0.09,0.1 0.21,0.21 0 0 1 -0.26,-0.1 0.13,0.13 0 0 1 0,-0.12 0.31,0.31 0 0 1 0,-0.08 l 0.06,-0.17 v 0 c 0,0 0,0 0,-0.06 -0.89,-3.31 -1.23,-6.76 -2.17,-10.07 -0.94,-3.31 -2,-6.27 -2.64,-9.5 -0.41,-2 -1.82,-12.25 2.68,-11 2,0.57 3.36,3.46 4.12,5.18 a 21.37,21.37 0 0 1 1.66,7.34 c 0.3,6.26 -1.98,11.93 -3.24,17.9 z"
       style="fill:#37474f"
       id="path1242" />
    <path
       d="m 181.3,354.76 a 24.87,24.87 0 0 0 -0.72,-6.93 c -0.2,-0.78 -1.18,-4.54 -2.45,-4.45 -0.83,0.06 -1,1.68 -1,2.22 -0.28,2.27 0.45,4.59 0.9,6.8 a 95.08,95.08 0 0 1 1.65,13.65 c 0,0.28 -0.09,0.58 -0.12,0.87 -0.03,0.29 -0.06,0.48 -0.09,0.72 v 0.25 a 1.11,1.11 0 0 0 0,0.19 0.21,0.21 0 0 0 0.26,0.1 c 0,-0.18 0.05,-0.37 0.08,-0.56 0,0.16 0,0.31 0,0.46 v 0 l 0.09,-0.48 v -0.11 c 0,-0.25 0,-0.51 0,-0.76 a 100.63,100.63 0 0 0 1.4,-11.97 z m -1.52,10.32 q -0.19,-4 -0.77,-8 c -0.3,-2.14 -0.71,-4.26 -1.16,-6.37 a 22.05,22.05 0 0 1 -0.57,-3.61 c 0,-0.94 0.09,-4.38 1.87,-2.25 1.28,1.56 1.59,4.85 1.75,6.76 a 34.45,34.45 0 0 1 -0.13,6.34 c -0.24,2.38 -0.63,4.75 -0.99,7.13 z"
       style="fill:#ffffff"
       id="path1244" />
    <path
       d="m 182.55,381.22 v 0 a 0.45,0.45 0 0 1 -0.18,0 c -4.58,-0.23 -10.68,0.2 -14.49,-2.83 -2.81,-2.23 -5.57,-6.65 -4.69,-10.41 1,-4.22 6.73,0.85 8.24,2.07 A 140.78,140.78 0 0 1 182.65,381 c 0,0 0,0.05 0.06,0.08 v 0 c 0.04,0.08 -0.05,0.12 -0.16,0.14 z"
       style="fill:#37474f"
       id="path1246" />
    <path
       d="m 182.71,381.09 -0.79,-0.5 c -3,-1.89 -5.94,-3.92 -8.76,-6.08 -0.72,-0.55 -5.87,-5.13 -6.65,-3.5 -0.46,1 1.24,3 1.78,3.7 a 14.09,14.09 0 0 0 3.48,3.1 c 3,1.91 6.75,2.32 10.21,3.23 a 4.27,4.27 0 0 1 0.48,0.13 l 0.09,0.05 v 0 c 0.11,-0.02 0.2,-0.06 0.16,-0.13 z m -9.05,-2.61 a 14.16,14.16 0 0 1 -4,-2.67 c -0.76,-0.73 -3.47,-3.47 -2.75,-4.59 0.38,-0.6 0.7,-0.28 1.43,0.07 0.33,0.17 0.66,0.36 1,0.56 0.77,0.51 1.47,1.1 2.19,1.66 1.25,1 2.53,2 3.83,2.93 2.13,1.55 4.32,3 6.55,4.4 -2.74,-0.84 -5.64,-1.18 -8.25,-2.36 z"
       style="fill:#ffffff"
       id="path1248" />
    <path
       d="m 190.92,371.79 a 27.05,27.05 0 0 1 -7.85,13.7 0.15,0.15 0 0 1 -0.08,0.05 0.2,0.2 0 0 1 -0.24,-0.08 0.21,0.21 0 0 1 0,-0.27 L 183,385 c 0.75,-6.22 1.59,-12.41 2.23,-18.65 0.15,-1.47 1.3,-10.84 4.18,-9.31 1.77,0.94 1.89,4.78 2.05,6.5 a 27.48,27.48 0 0 1 -0.54,8.25 z"
       style="fill:#37474f"
       id="path1250" />
    <path
       d="m 189.26,363.45 c -0.16,-0.52 -0.43,-1.06 -1,-0.69 -1.12,0.69 -1.56,5.1 -1.75,6.31 -0.77,5 -2,9.85 -3.17,14.77 l -0.3,1.25 -0.28,0.37 a 0.19,0.19 0 0 0 0.23,0.08 0.42,0.42 0 0 0 0,-0.12 c 0.13,-0.16 0.26,-0.33 0.38,-0.5 v 0 a 32,32 0 0 0 4.53,-8.83 30.22,30.22 0 0 0 1.33,-6.16 c 0.25,-1.93 0.61,-4.6 0.03,-6.48 z m -5.88,21.12 c 0,0.09 -0.12,0.17 -0.17,0.25 0,-0.17 0.11,-0.33 0.15,-0.5 a 89.49,89.49 0 0 0 2.81,-11.43 c 0.33,-2 0.54,-3.94 0.94,-5.89 0.17,-0.82 0.58,-3.17 1.26,-3.55 0.68,-0.38 0.67,0.53 0.74,1.06 0.07,0.53 0,1.07 0,1.43 a 31.49,31.49 0 0 1 -5.73,18.63 z"
       style="fill:#ffffff"
       id="path1252" />
    <path
       d="m 183.83,398.92 h -0.92 c 0,-0.81 0,-1.62 0,-2.42 -0.11,-3.25 -0.24,-6.5 -0.43,-9.75 -0.11,-1.86 -0.24,-3.7 -0.44,-5.52 a 1.21,1.21 0 0 1 0,-0.19 c 0,-0.14 0,-0.29 -0.06,-0.45 -0.06,-0.16 0,-0.32 -0.06,-0.48 a 39.63,39.63 0 0 0 -3.14,-11.95 c -0.59,-1.27 -1.22,-2.5 -1.89,-3.73 l -0.19,-0.35 -0.06,-0.09 c -0.06,-0.12 -0.13,-0.24 -0.2,-0.36 -0.07,-0.12 -0.1,-0.18 -0.16,-0.28 -2.11,-3.72 -4.54,-7.28 -6.83,-10.87 -0.66,-1 -1.32,-2.06 -2,-3.09 a 1.18,1.18 0 0 1 -0.11,-0.19 1.7,1.7 0 0 1 -0.15,-0.22 c -2.89,-4.56 -5.73,-9.15 -8.73,-13.62 -0.11,-0.16 0.16,-0.31 0.27,-0.15 2,3 4.12,5.88 6.2,8.82 l 0.83,1.17 c 0.55,0.78 1.1,1.54 1.64,2.32 1.08,1.55 2.16,3.1 3.2,4.68 a 131.6,131.6 0 0 1 8.4,13.64 c 0.18,0.35 0.35,0.71 0.52,1.08 0.11,0.22 0.22,0.45 0.31,0.67 0.09,0.22 0.24,0.52 0.36,0.79 a 42.1,42.1 0 0 1 3.08,14.42 c 0,0.34 0,0.69 0.06,1 0,0.15 0,0.31 0,0.48 a 2.11,2.11 0 0 0 0,0.25 c 0,0.11 0,0.22 0,0.34 v 0 0.24 c 0,0.3 0,0.59 0,0.9 0.13,3.25 0.22,6.5 0.29,9.74 0.13,1.09 0.17,2.13 0.21,3.17 z"
       style="fill:#37474f"
       id="path1254" />
    <path
       d="m 156.5,340 c -2.5,-3.37 -5.72,-10.32 -2,-13.94 a 3.93,3.93 0 0 1 5.23,-0.38 c 2,1.41 2.83,4.08 3.46,6.28 1.7,5.9 2.82,11.91 4.93,17.69 a 5.67,5.67 0 0 1 0.23,0.62 c 0,0.12 -0.15,0.17 -0.19,0.05 l -0.21,-0.56 C 163.94,346.86 159.47,344 156.5,340 Z"
       style="fill:#37474f"
       id="path1256" />
    <path
       d="m 168.14,349.66 c 0,0 0,-0.07 -0.07,-0.1 a 42.47,42.47 0 0 1 -2.34,-4.36 84.64,84.64 0 0 1 -3.6,-9.66 c -0.4,-1.26 -2.2,-7.45 -4.42,-5 -0.93,1 -0.8,2.88 -0.65,4.16 a 15.54,15.54 0 0 0 1.93,5.8 c 2,3.58 5.07,6.29 8.32,8.69 0.14,0.12 0.29,0.23 0.44,0.34 l 0.09,0.15 0.06,0.1 a 0.14,0.14 0 0 0 0.25,0 0.11,0.11 0 0 0 -0.01,-0.12 z m -1,-0.68 a 33.14,33.14 0 0 1 -7.06,-7.08 17.6,17.6 0 0 1 -2.29,-4.69 13.31,13.31 0 0 1 -0.5,-2.27 10.16,10.16 0 0 1 -0.1,-1.74 c 0,-1.27 0.57,-2.66 1.32,-2.79 0.93,-0.17 1.24,0.37 1.85,1.44 a 9.67,9.67 0 0 1 0.55,1.12 28.36,28.36 0 0 1 1,2.93 c 0.52,1.64 1.05,3.27 1.64,4.88 0.4,1.1 0.82,2.18 1.29,3.25 a 43.44,43.44 0 0 0 2.75,5.34 z"
       style="fill:#ffffff"
       id="path1258" />
    <path
       d="m 323.33,349.43 c -0.41,3.34 -1.05,6.64 -1.73,9.94 -0.38,1.87 -0.78,3.73 -1.16,5.61 -0.42,2.06 -1,4.16 -0.47,6.24 v 0 a 1.46,1.46 0 0 1 0,0.29 v 0 a 0.25,0.25 0 0 1 -0.43,-0.07 1,1 0 0 1 0,-0.14 v 0 a 7.44,7.44 0 0 1 -0.72,-1.73 44.7,44.7 0 0 1 -3.29,-15.13 35.41,35.41 0 0 1 1,-9.29 c 0.6,-2.42 1.44,-6 3.25,-7.9 1.64,-1.68 3,1 3.48,2.37 0.97,3.08 0.46,6.64 0.07,9.81 z"
       style="fill:#37474f"
       id="path1260" />
    <path
       d="m 320.34,342.34 c -1.22,0 -2.1,3.93 -2.54,5.63 a 33.82,33.82 0 0 0 -1,8.2 43.8,43.8 0 0 0 2.52,14.56 c 0.07,0.18 0.13,0.38 0.2,0.56 a 0.65,0.65 0 0 0 0,0.13 0.25,0.25 0 0 0 0.43,0.08 c -0.08,-0.41 -0.14,-0.81 -0.18,-1.23 -0.04,-0.42 -0.09,-0.73 -0.11,-1.1 a 57.93,57.93 0 0 1 0.74,-12.05 c 0.6,-4.61 1.6,-14.78 -0.06,-14.78 z M 319.46,370 c 0.06,0.54 0.15,1.07 0.25,1.6 -0.12,-0.39 -0.25,-0.77 -0.36,-1.16 a 48.08,48.08 0 0 1 -2.3,-12.85 34.76,34.76 0 0 1 0.53,-7.34 31.66,31.66 0 0 1 0.95,-3.84 c 0.17,-0.53 1.06,-3.82 1.81,-3.66 0.53,0.12 0.65,3.08 0.66,3.15 0,0.59 0,1.18 0,1.78 0,1.23 -0.1,2.45 -0.2,3.67 -0.23,2.65 -0.61,5.29 -0.93,7.93 A 45.8,45.8 0 0 0 319.46,370 Z"
       style="fill:#ffffff"
       id="path1262" />
    <path
       d="m 342.52,358.65 c -2.24,4.37 -6,7.71 -9.9,10.57 -2.09,1.53 -4.24,3 -6.36,4.45 a 34.24,34.24 0 0 0 -5.49,4.23 2.29,2.29 0 0 0 -0.21,0.23 8.6,8.6 0 0 0 -1.14,1.57 0.14,0.14 0 0 1 -0.11,0.06 1.59,1.59 0 0 1 -0.07,0.2 0.045,0 0 0 0 -0.09,0 v -0.22 0 a 0.12,0.12 0 0 1 0,-0.16 0.16,0.16 0 0 1 0,-0.07 1.66,1.66 0 0 1 0,-0.22 c 0.63,-5.1 4.2,-10.25 7.22,-14.18 3.02,-3.93 6.73,-7.4 11.39,-9.19 1.17,-0.45 3.83,-1.69 5,-0.74 1.17,0.95 0.24,2.55 -0.24,3.47 z"
       style="fill:#37474f"
       id="path1264" />
    <path
       d="m 339.06,358.67 c -1.06,-1.06 -4.19,1.56 -5,2.18 a 52,52 0 0 0 -6.47,6.29 46.48,46.48 0 0 0 -8.26,12 v 0 l -0.11,0.14 a 0.89,0.89 0 0 0 0,0.22 0.1,0.1 0 0 0 0,0.07 0.14,0.14 0 0 0 0,0.17 c 0.06,-0.06 0.1,-0.13 0.16,-0.18 0.39,-0.48 0.8,-0.95 1.22,-1.41 l 0.21,-0.22 a 101.15,101.15 0 0 1 9.67,-8.55 48.31,48.31 0 0 0 6.45,-6.26 c 0.45,-0.62 3.07,-3.55 2.13,-4.45 z m -1,2.34 c -2.64,4.38 -7.21,7.58 -11.09,10.77 a 53,53 0 0 0 -7.37,7 49.46,49.46 0 0 1 7.67,-10.78 67,67 0 0 1 5.25,-5.41 27.85,27.85 0 0 1 3.19,-2.55 11.24,11.24 0 0 1 2.16,-1.17 c 1.48,-0.42 0.66,1.39 0.21,2.13 z"
       style="fill:#ffffff"
       id="path1266" />
    <path
       d="m 318.71,390.09 a 0.28,0.28 0 0 1 -0.23,0.12 l 0.06,0.08 a 0.08,0.08 0 0 1 0,0.11 0.06,0.06 0 0 1 -0.1,0 c -4.14,-4.2 -8.12,-9.32 -10.18,-14.89 a 23.06,23.06 0 0 1 -1.48,-7.34 c -0.05,-1.71 -0.14,-5.17 1.33,-6.42 3,-2.51 5.65,8.15 6.05,9.76 0.73,2.93 1.22,5.92 1.89,8.86 0.74,3.22 1.72,6.39 2.68,9.55 a 0.2,0.2 0 0 1 -0.02,0.17 z"
       style="fill:#37474f"
       id="path1268" />
    <path
       d="m 318.71,390.08 c -0.16,-0.27 -0.32,-0.54 -0.47,-0.82 a 49.89,49.89 0 0 1 -5.32,-14.33 45.41,45.41 0 0 0 -2,-7.45 c -0.24,-0.59 -1,-2.87 -1.95,-1.72 -0.51,0.6 -0.09,4.91 0.12,6 a 31.37,31.37 0 0 0 2.39,7.32 52,52 0 0 0 6.78,11 c 0.08,0.1 0.15,0.2 0.23,0.29 a 0.08,0.08 0 0 0 0,-0.11 l -0.06,-0.07 a 0.28,0.28 0 0 0 0.28,-0.11 z m -6,-9.16 a 36.38,36.38 0 0 1 -2.84,-7.11 23.33,23.33 0 0 1 -0.62,-3 15.92,15.92 0 0 1 -0.2,-2.38 c 0,-1.95 0.17,-2.45 0.49,-2.52 0.32,-0.07 0.48,0.17 1.06,1.33 a 13.32,13.32 0 0 1 0.83,2.37 c 0.3,1.15 0.56,2.3 0.81,3.47 0.51,2.32 1,4.65 1.66,6.93 a 38.54,38.54 0 0 0 4.1,9.32 59,59 0 0 1 -5.29,-8.41 z"
       style="fill:#ffffff"
       id="path1270" />
    <path
       d="m 332,379.86 a 14.83,14.83 0 0 1 -2.71,5.64 c -2.46,3.39 -5.59,6.2 -8.27,9.41 -0.4,0.48 -0.8,1 -1.17,1.46 0,0.06 -0.35,0.77 -0.35,0.71 0,-0.06 0,-0.28 0.14,-0.74 v 0 c 0.43,-2.25 1.84,-9 3.6,-12.49 a 29.84,29.84 0 0 1 3.92,-6.13 c 0.76,-0.86 2.54,-2.72 3.88,-2.31 1.34,0.41 1.14,3.37 0.96,4.45 z"
       style="fill:#37474f"
       id="path1272" />
    <path
       d="m 329.78,378.49 c -1.43,-0.89 -5.13,5.72 -5.63,6.57 a 42,42 0 0 0 -4.22,10.09 c -0.12,0.39 -0.22,0.79 -0.32,1.19 -0.1,0.4 -0.14,0.72 -0.14,0.74 0,0.02 0.31,-0.65 0.35,-0.71 l 0.19,-0.25 c 0.32,-0.42 0.65,-0.82 1,-1.21 1.61,-2.4 3.26,-4.79 4.82,-7.23 a 38,38 0 0 0 3,-5.5 c 0.17,-0.43 1.58,-3.3 0.95,-3.69 z m -0.41,1.86 c -2,5.75 -6.21,10.29 -9.39,15.39 l -0.15,0.25 c 0,-0.15 0.08,-0.3 0.13,-0.45 a 48.8,48.8 0 0 1 3.37,-8.4 46.35,46.35 0 0 1 2.85,-4.73 22.45,22.45 0 0 1 1.76,-2.46 c 0.3,-0.33 1.15,-1.19 1.43,-1 0.28,0.19 0.13,1.05 0,1.4 z"
       style="fill:#ffffff"
       id="path1274" />
    <path
       d="m 346.38,332.39 c -4.26,9.8 -15.46,14.37 -20.31,23.82 v 0.05 c -0.15,0.28 -0.29,0.58 -0.43,0.87 a 0.19,0.19 0 0 1 -0.32,0.05 0.13,0.13 0 0 1 0,-0.16 2,2 0 0 1 0.1,-0.21 51.32,51.32 0 0 1 6,-17.16 c 2.45,-4.52 5.81,-8.74 10.46,-11.12 1.15,-0.59 3.38,-1.83 4.66,-0.86 1.28,0.97 0.37,3.51 -0.16,4.72 z"
       style="fill:#37474f"
       id="path1276" />
    <path
       d="m 342.54,332.81 c -0.54,-0.4 -1.36,0.09 -1.83,0.33 a 16.21,16.21 0 0 0 -3.23,2.21 27.2,27.2 0 0 0 -5.17,6.14 55.91,55.91 0 0 0 -6.08,12.33 c -0.33,1 -0.61,2 -0.85,3 0,0.13 -0.05,0.25 -0.08,0.37 a 0.19,0.19 0 0 0 0.32,0 c 0.13,-0.3 0.27,-0.57 0.41,-0.86 v -0.07 a 32.23,32.23 0 0 1 3,-5.59 75.78,75.78 0 0 1 6.47,-7.67 c 0.87,-0.92 8.92,-8.81 7.04,-10.19 z m -0.68,2.27 c -1.29,2.3 -3.31,4.18 -5.06,6.14 -1.75,1.96 -3.56,3.93 -5.3,5.94 a 37.36,37.36 0 0 0 -3.73,5.09 29.19,29.19 0 0 0 -2.34,4.72 41,41 0 0 1 1.67,-4.9 c 0,0 0,0 0,-0.06 a 72.92,72.92 0 0 1 4.14,-8.24 l 0.05,-0.1 a 33.71,33.71 0 0 1 4.72,-6.59 19.94,19.94 0 0 1 3.36,-2.86 c 1.41,-0.9 2.63,-1.49 3,-1 0.37,0.49 -0.12,1.18 -0.51,1.86 z"
       style="fill:#ffffff"
       id="path1278" />
    <path
       d="m 331.48,343.88 c -1.28,2.76 -2.5,5.57 -3.71,8.37 -0.58,1.32 -1.14,2.64 -1.7,4 v 0.07 c -0.2,0.48 -0.41,1 -0.62,1.43 -1.84,4.3 -3.88,8.7 -5,13.26 a 39.91,39.91 0 0 0 -1,7.36 c 0,0.26 0,0.52 0,0.77 v 0 c 0,0.14 0,0.28 0,0.42 a 1.77,1.77 0 0 0 0,0.23 c -0.08,2.15 -0.05,4.31 0,6.41 0.06,2.92 0.3,5.82 0.58,8.72 a 1.22,1.22 0 0 0 0,0.26 c 0,0.13 0,0.26 0,0.39 0,0.13 0,0.13 0,0.2 v 0.38 c 0.1,0.93 0.18,1.86 0.26,2.8 h -0.89 a 57.83,57.83 0 0 1 -1.08,-8.63 1.15,1.15 0 0 1 0,-0.18 c 0,-0.28 0,-0.57 -0.05,-0.85 -0.05,-0.28 0,-0.69 0,-1 0,-0.84 -0.06,-1.67 -0.07,-2.49 a 61.38,61.38 0 0 1 1,-14.45 l 0.09,-0.39 c 0,-0.05 0,-0.11 0,-0.16 a 2.29,2.29 0 0 1 0.07,-0.28 l 0.11,-0.44 c 0.07,-0.27 0.15,-0.53 0.23,-0.79 a 2,2 0 0 1 0.07,-0.23 93.08,93.08 0 0 1 4.92,-11.9 c 0.33,-0.71 0.66,-1.4 1,-2.1 l 0.56,-1.17 0.87,-1.75 c 0,0 0,0 0,-0.06 1.37,-2.75 2.79,-5.48 4.14,-8.24 0.07,-0.19 0.29,-0.09 0.22,0.04 z"
       style="fill:#37474f"
       id="path1280" />
    <path
       d="M 161.61,398.65 H 99 c 0,0 0.14,-9.32 6.3,-11.8 a 8.39,8.39 0 0 1 9.82,2.35 c 0,0 2.51,-17.14 14,-17.14 11.49,0 17,14.79 17,14.79 0,0 2.57,-4.47 8.94,-3.64 6.37,0.83 6.55,15.44 6.55,15.44 z"
       style="fill:#37474f"
       id="path1282" />
    <path
       d="m 447.58,398.65 c 0,0 -1.92,-9 -5.75,-10.34 -3.83,-1.34 -6.17,2.64 -6.17,2.64 0,0 -0.91,-8.56 -6.35,-11.13 -5.44,-2.57 -9.52,2.69 -9.52,2.69 0,0 -4.17,-10.87 -11.62,-10.87 -7.45,0 -11.17,15.9 -11.17,15.9 0,0 -4.4,-4.74 -8.91,-2.06 -4.51,2.68 -4.51,13.17 -4.51,13.17 z"
       style="fill:#37474f"
       id="path1284" />
    <path
       d="M 110.19,398.65 H 52.42 c 0,0 1.9,-8.14 5.73,-8.72 3.83,-0.58 5.61,3.2 5.61,3.2 0,0 -0.17,-11.36 7,-13.3 7.17,-1.94 13.16,8.11 13.16,8.11 0,0 4.48,-5.73 10.6,-5.36 6.12,0.37 7.66,9.82 7.66,9.82 0,0 5.55,-3.28 8.01,6.25 z"
       style="fill:#455a64"
       id="path1286" />
    <path
       d="m 387.67,398.65 h -35.49 c 0,0 0.08,-5.28 3.57,-6.68 a 4.73,4.73 0 0 1 5.56,1.33 c 0,0 1.42,-9.71 7.93,-9.71 6.51,0 9.61,8.38 9.61,8.38 a 5,5 0 0 1 5.07,-2.07 c 3.61,0.48 3.75,8.75 3.75,8.75 z"
       style="fill:#455a64"
       id="path1288" />
  </g>
  <g
     id="freepik--Floor--inject-4">
    <polygon
       points="147.88,398.59 250,398.42 352.12,398.58 403.19,398.67 454.25,398.92 403.19,399.16 352.12,399.25 250,399.42 147.88,399.25 96.82,399.16 45.75,398.92 96.82,398.67 "
       style="fill:#263238"
       id="polygon1291" />
  </g>
  <g
     id="freepik--social-tree--inject-4"
     style="display:inline">
    <path
       d="m 187.14,143.34 c 0,9.58 0,55.31 43,62.76 0,0 0.7,4.83 2.07,12.38 1.64,9.16 4.26,22.32 7.73,35.71 a 0.24,0.24 0 0 0 0,0.09 c 1.2,4.61 2.5,9.24 3.9,13.74 a 0.3,0.3 0 0 0 0,0.1 c 0.14,0.43 0.27,0.85 0.4,1.27 a 232.45,232.45 0 0 1 6.7,26.16 c 13.22,68.4 -14.95,103.37 -14.95,103.37 h 59.21 c 0,0 14.67,-64 -16.47,-128.23 C 273,258.8 295.93,249.13 306,227 c 8.49,-18.74 8.24,-110.91 4.12,-116.85 -4.12,-5.94 -10.7,-4.46 -10.7,3.72 0,8.18 0,84.71 -5.77,99.57 -5.77,14.86 -30.38,32.7 -30.38,32.7 0,0 -12.65,-20.7 -19.74,-66 v 0 c -3.32,-21.32 -5.42,-48.07 -4.4,-80.68 0,0 0,0 0,0 q 0.32,-10.35 1.09,-21.48 c 0.59,-8.51 -8.25,-4.78 -11.19,2.67 -2.94,7.45 -7.08,50.52 -1.19,108.49 0,0 -29.47,-4.15 -29.47,-50.53 -0.04,-8.61 -11.23,-4.85 -11.23,4.73 z"
       style="fill:#fba700"
       id="path1294" />
    <path
       d="m 187.14,143.34 c 0,9.58 0,55.31 43,62.76 0,0 0.7,4.83 2.07,12.38 1.64,9.16 4.26,22.32 7.73,35.71 a 0.24,0.24 0 0 0 0,0.09 c 1.2,4.61 2.5,9.24 3.9,13.74 a 0.3,0.3 0 0 0 0,0.1 c 0.14,0.43 0.27,0.85 0.4,1.27 a 232.45,232.45 0 0 1 6.7,26.16 c 13.22,68.4 -14.95,103.37 -14.95,103.37 h 59.21 c 0,0 14.67,-64 -16.47,-128.23 C 273,258.8 295.93,249.13 306,227 c 8.49,-18.74 8.24,-110.91 4.12,-116.85 -4.12,-5.94 -10.7,-4.46 -10.7,3.72 0,8.18 0,84.71 -5.77,99.57 -5.77,14.86 -30.38,32.7 -30.38,32.7 0,0 -12.65,-20.7 -19.74,-66 v 0 c -3.32,-21.32 -5.42,-48.07 -4.4,-80.68 0,0 0,0 0,0 q 0.32,-10.35 1.09,-21.48 c 0.59,-8.51 -8.25,-4.78 -11.19,2.67 -2.94,7.45 -7.08,50.52 -1.19,108.49 0,0 -29.47,-4.15 -29.47,-50.53 -0.04,-8.61 -11.23,-4.85 -11.23,4.73 z"
       style="opacity:0.5"
       id="path1296" />
    <g
       style="opacity:0.1"
       id="g1338">
      <path
         d="m 265.9,270.06 c 3.4,11.58 8.05,22.86 11.42,34.48 a 235.52,235.52 0 0 1 7.62,35.67 182.85,182.85 0 0 1 1.16,35 c -0.52,8 -2.35,15.83 -3.74,23.71 h 5.39 c 6.4,-18.34 5.54,-39 2.24,-57.51 a 262,262 0 0 0 -9.48,-35.81 c -4,-12 -7.76,-24.3 -12.82,-36 -0.43,-0.97 -2.1,-0.6 -1.79,0.46 z"
         id="path1298" />
      <path
         d="m 242.08,201 c 2.37,24.44 13.19,48.17 20.94,71.5 a 192.43,192.43 0 0 1 9.31,72.86 c 0,0.58 -1,0.59 -1,0 -0.24,-13.35 -0.47,-26.79 -3.22,-39.95 -2.49,-11.89 -6.42,-23.56 -10.36,-35.11 -3.88,-11.33 -8.18,-22.57 -11.37,-34.08 A 158.4,158.4 0 0 1 240.94,201 c -0.03,-0.7 1.06,-0.68 1.14,0 z"
         id="path1300" />
      <path
         d="m 242.19,398.92 h 6 c 1.66,-3.34 3.15,-6.73 4.56,-10 A 142.75,142.75 0 0 0 262,358.66 c 3.85,-20.39 3,-40.61 -1.66,-60.82 -0.14,-0.58 -1.05,-0.32 -1,0.23 3.51,20.07 2.47,41.22 -2.16,61.06 a 170,170 0 0 1 -9.37,28.58 124.12,124.12 0 0 1 -5.62,11.21 z"
         id="path1302" />
      <path
         d="m 264.37,372.55 c 1.37,-4.5 2.2,-10 4.52,-14.21 a 5.28,5.28 0 0 1 4.23,-2.86 1.08,1.08 0 0 1 0.41,-0.05 4,4 0 0 1 0.62,0.08 5.87,5.87 0 0 1 1.11,0.25 c 0.73,0.25 1.55,0.75 1.68,1.52 0,0 0,0.08 0,0.12 2.63,3.75 1.66,11.77 1.29,14.72 -0.56,4.6 -1.94,16.66 -9.94,15.58 -7.75,-1.05 -5.24,-10.79 -3.92,-15.15 z"
         id="path1304" />
      <path
         d="m 232.23,218.48 c 1.64,9.16 4.26,22.32 7.73,35.71 a 0.24,0.24 0 0 0 0,0.09 c 0.44,1.53 0.9,3 1.35,4.57 0.92,3.06 1.78,6.11 2.55,9.17 a 0.3,0.3 0 0 0 0,0.1 c 0.14,0.43 0.27,0.85 0.4,1.27 a 232.45,232.45 0 0 1 6.7,26.16 c 1.36,-11.48 -0.83,-22.88 -4.21,-34.32 -4.23,-14.47 -9.04,-28.66 -14.52,-42.75 z"
         id="path1306" />
      <path
         d="m 304.55,188.94 a 4.92,4.92 0 0 1 0.57,-2.42 2,2 0 0 1 1.91,-0.83 1.92,1.92 0 0 1 1.59,1.24 1.21,1.21 0 0 1 0.08,0.25 1.22,1.22 0 0 1 0.27,0.56 3.47,3.47 0 0 1 0,1.11 2.39,2.39 0 0 1 -0.68,2.83 2.2,2.2 0 0 1 -3.2,-0.38 3,3 0 0 1 -0.54,-2.36 z"
         id="path1308" />
      <path
         d="m 271,248.78 c 14,-14.9 30.36,-32.37 30.31,-53 0,-0.52 0.8,-0.48 0.87,0 3.16,22.68 -12.92,39.51 -30,54.09 -0.76,0.67 -1.84,-0.35 -1.18,-1.09 z"
         id="path1310" />
      <path
         d="m 273.16,258.77 c 0.69,-3.71 3.9,-6.89 6.61,-9.6 3.66,-3.65 7.62,-7 10.73,-11.06 0.41,-0.53 1.34,-0.06 1,0.52 a 64.61,64.61 0 0 1 -8.11,10.12 c -3.17,3.41 -5.75,7.38 -9.08,10.62 a 0.68,0.68 0 0 1 -1.15,-0.6 z"
         id="path1312" />
      <path
         d="m 307.66,123.35 c 0,-0.41 0.64,-0.38 0.69,0 2.68,18.12 3.12,37.47 -0.58,55.52 -0.11,0.58 -1.11,0.43 -1.11,-0.14 0,-18.43 0.98,-36.92 1,-55.38 z"
         id="path1314" />
      <path
         d="m 303.29,151.39 c 0,-0.14 0.25,-0.14 0.25,0 0.1,12 0.11,24.92 -2.82,36.63 -0.17,0.69 -1.37,0.54 -1.36,-0.16 0.1,-12.06 2.47,-24.48 3.93,-36.47 z"
         id="path1316" />
      <path
         d="m 197.36,170.35 c 3,7.94 6.37,15.07 13.46,20.82 a 52.51,52.51 0 0 0 10.7,6.77 c 3.72,1.74 7.89,2.54 11.53,4.36 0.54,0.27 0.23,0.9 -0.29,1 -8.71,0.93 -18.68,-5.45 -24.34,-10.88 -6.13,-5.88 -11.63,-13.64 -12.23,-21.89 -0.04,-0.67 0.96,-0.73 1.17,-0.18 z"
         id="path1318" />
      <path
         d="m 196.06,152.4 c 1.77,14.81 10.46,27.32 21.82,37.69 0.32,0.29 -0.1,0.81 -0.5,0.58 -14.15,-8.48 -21.08,-23.4 -21.59,-38.27 -0.01,-0.16 0.21,-0.15 0.27,0 z"
         id="path1320" />
      <path
         d="m 229.47,120 c 0.05,-0.55 1,-0.57 1,0 -0.65,32.91 6.44,65.25 9.21,98 0,0.55 -1,0.68 -1.07,0.13 -3.2,-16 -5.66,-32.32 -7.66,-48.53 -2.06,-16.53 -3.16,-33.08 -1.48,-49.6 z"
         id="path1322" />
      <path
         d="m 233.93,139.11 a 131.21,131.21 0 0 0 9.56,41 c -3.32,-21.32 -5.42,-48.07 -4.4,-80.68 a 112.71,112.71 0 0 0 -3.72,13.88 102,102 0 0 0 -1.44,25.8 z"
         id="path1324" />
      <path
         d="m 229.85,101.81 c 0.49,-2.93 1.88,-5.62 2.5,-8.52 0.13,-0.61 1.27,-0.63 1.38,0 0.45,2.53 -0.43,4.65 -1.15,7.09 -1,3.43 -1.23,6.93 -1.72,10.43 a 0.59,0.59 0 0 1 -1.17,0 35.22,35.22 0 0 1 0.16,-9 z"
         id="path1326" />
      <path
         d="m 269.05,262.1 c 8.2,12.72 13.26,26.44 16.35,40.82 0.13,0.58 -0.76,0.81 -1,0.25 -5.09,-13.68 -10.89,-27.15 -16.26,-40.74 -0.14,-0.43 0.64,-0.75 0.91,-0.33 z"
         id="path1328" />
      <path
         d="m 254.35,273.58 c 2.64,4.91 5.61,12.13 4.41,17.66 0,0.11 -0.21,0.13 -0.27,0 -1.43,-2.46 -1.8,-5.33 -2.51,-8 -0.83,-3.11 -1.9,-6.17 -2.71,-9.28 -0.15,-0.53 0.78,-0.96 1.08,-0.38 z"
         id="path1330" />
      <path
         d="m 272.46,396.93 a 35.79,35.79 0 0 0 7.26,-16.18 c 1.37,-7 2.85,-14.58 1.43,-21.68 -1.17,-5.82 -3.41,-11.33 -4.27,-17.23 a 81.83,81.83 0 0 1 -0.28,-21.15 c 0,-0.45 0.81,-0.47 0.79,0 A 80.9,80.9 0 0 0 280,345 c 1.78,6.59 4.65,12.95 4.61,19.81 -0.05,10.48 -1.82,25.48 -11.1,32.84 -0.51,0.43 -1.51,-0.13 -1.05,-0.72 z"
         id="path1332" />
      <path
         d="m 259.89,398.92 h 3.51 a 12.35,12.35 0 0 0 -0.47,-5.26 c -1.17,-4.08 -3.5,-8.58 -2.8,-12.9 0,-0.24 -0.35,-0.44 -0.48,-0.18 -2.9,6.06 -0.57,12.18 0.24,18.34 z"
         id="path1334" />
      <path
         d="m 260.8,376.87 c 0,0 0,0 0,0 a 2.74,2.74 0 0 0 -0.43,1.71 c 0,0 0,0 0,0 a 2.78,2.78 0 0 1 0.43,-1.71 z"
         id="path1336" />
    </g>
    <g
       id="location-g">
      <circle
         cx="383.56"
         cy="248"
         r="22.51"
         transform="rotate(-31.46,383.53182,247.99114)"
         style="fill:#37474f"
         id="location-circle" />
      <path
         d="M 394.51,241.92 C 394,236.44 390.19,231 383.56,231 c -6.63,0 -10.4,5.45 -10.95,10.93 -0.83,8.45 4.87,16.11 10.95,23.1 6.09,-7.03 11.79,-14.66 10.95,-23.11 z M 383.56,248 a 6,6 0 1 1 6,-6 6,6 0 0 1 -6,6 z"
         style="fill:#ffffff"
         id="path1342" />
    </g>
    <g
       id="f-group">
      <g
         id="g3644">
        <circle
           cx="247.14999"
           cy="76.980003"
           transform="rotate(-76.99,247.14254,76.981595)"
           style="fill:#455a64"
           id="f_circle"
           r="47.5" />
        <path
           d="m 246,63.82 c -0.11,3 0,6.08 0,9.35 h 11.8 c -0.5,3.89 -0.93,7.48 -1.51,11 0,0.36 -0.93,0.79 -1.44,0.82 -2.84,0.07 -5.68,0 -8.78,0 v 39.36 a 46.33,46.33 0 0 1 -12.52,-2 V 85.15 H 223.19 V 73.28 h 10.11 c 0,-0.9 0.11,-1.62 0.11,-2.3 0.07,-3.13 0,-6.26 0.25,-9.36 0.64,-6.8 4.82,-11.58 11.55,-12.52 4.17,-0.57 8.52,-0.11 12.91,-0.11 v 10.8 c -1.55,0 -3.13,0 -4.68,0 a 19.66,19.66 0 0 0 -4.13,0.28 3.89,3.89 0 0 0 -3.31,3.75 z"
           style="fill:#ffffff"
           id="path1346" />
      </g>
    </g>
    <g
       id="tw-group">
      <circle
         cx="160.58"
         cy="206.67999"
         r="47.5"
         transform="rotate(-45,160.57815,206.67635)"
         style="fill:#455a64"
         id="twitter_circle" />
      <path
         d="m 134.64,229 a 26.53,26.53 0 0 0 17.12,-5.27 c -7.08,-2.15 -9.9,-4.31 -10.93,-8.34 l 4.74,-0.23 c -5.58,-2.15 -8.87,-5.9 -9.3,-12 l 4.89,1.29 C 136.04,198 135,193 138.06,188.33 a 35.3,35.3 0 0 0 25.1,12.56 c 0,-0.8 -0.09,-1.4 -0.11,-2 -0.2,-5.29 2,-9.29 6.73,-11.62 4.73,-2.33 9.26,-1.69 13.33,1.61 a 2.46,2.46 0 0 0 2.69,0.56 c 1.91,-0.72 3.83,-1.41 5.93,-2.18 a 12.21,12.21 0 0 1 -4.66,6 c 0.05,0.11 0.09,0.23 0.13,0.34 l 5.87,-1.51 0.24,0.24 c -1.52,1.52 -3,3.12 -4.58,4.55 a 3.12,3.12 0 0 0 -1.27,2.62 34.35,34.35 0 0 1 -31.26,34.42 34.86,34.86 0 0 1 -20.39,-4.16 c -0.4,-0.3 -0.81,-0.55 -1.17,-0.76 z"
         style="fill:#ffffff"
         id="path1350" />
    </g>
    <g
       id="in-group">
      <circle
         cx="259.56"
         cy="257.01999"
         r="33.310001"
         transform="rotate(-82.86,259.55306,257.01517)"
         style="fill:#455a64"
         id="in-circle" />
      <g
         id="freepik--2dqxsktif--inject-4">
        <path
           d="m 246.5,239.55 a 0.43,0.43 0 0 0 0.14,0 4.09,4.09 0 0 1 2.64,1.19 4,4 0 0 1 1.18,2.34 4.1,4.1 0 0 1 -1.41,3.87 4.05,4.05 0 0 1 -2,0.94 4.13,4.13 0 0 1 -1.16,0.06 4.19,4.19 0 0 1 -3.64,-3 3.6,3.6 0 0 1 -0.15,-0.87 c 0,-0.06 0,-0.13 -0.07,-0.15 v -0.37 c 0.07,0 0.06,-0.09 0.07,-0.15 0.01,-0.06 0,-0.24 0,-0.36 a 4.14,4.14 0 0 1 1,-2.17 4.1,4.1 0 0 1 2.81,-1.34 0.74,0.74 0 0 0 0.14,0 z"
           style="fill:#ffffff"
           id="path1354" />
        <path
           d="m 261.48,254.24 0.11,-0.14 a 7.7,7.7 0 0 1 4.61,-3.26 10.88,10.88 0 0 1 1.89,-0.26 11.11,11.11 0 0 1 1.29,0 9.39,9.39 0 0 1 3.57,0.89 6.17,6.17 0 0 1 2.68,2.55 9.1,9.1 0 0 1 0.89,2.25 11.21,11.21 0 0 1 0.33,1.63 c 0,0.27 0,0.55 0.07,0.83 0,0.51 0.06,1 0.08,1.54 v 0 c 0,0.49 0,1 0,1.47 v 4.92 7.44 c 0,0.28 0,0.29 -0.3,0.29 h -6.09 -0.46 -0.08 c -0.35,0 -0.35,-0.1 -0.35,-0.36 V 268 q 0,-3.06 0,-6.12 a 7.75,7.75 0 0 0 -0.3,-2.29 4.41,4.41 0 0 0 -0.56,-1.23 2.82,2.82 0 0 0 -1.84,-1.22 3.69,3.69 0 0 0 -0.87,-0.1 c -0.32,0 -0.63,0 -0.94,0 a 3.45,3.45 0 0 0 -2.95,2.13 6.6,6.6 0 0 0 -0.47,1.74 13.51,13.51 0 0 0 -0.12,1.91 V 274 a 2.25,2.25 0 0 1 0,0.26 c 0,0.12 -0.06,0.16 -0.17,0.17 h -6 -0.66 -0.09 c -0.3,0 -0.32,-0.11 -0.32,-0.33 0,-0.22 0,-0.22 0,-0.33 v -22.18 a 1.21,1.21 0 0 1 0,-0.19 c 0,-0.17 0.06,-0.23 0.23,-0.24 h 6.52 c 0.16,0 0.22,0.06 0.22,0.23 0,0.17 0,0.56 0,0.84 v 1.24 c 0,0.2 0,0.4 0,0.6 a 0.92,0.92 0 0 0 0,0.16 z"
           style="fill:#ffffff"
           id="path1356" />
        <path
           d="m 242.67,262.8 v -11.31 a 1.21,1.21 0 0 1 0,-0.19 0.13,0.13 0 0 1 0.14,-0.13 h 6.83 c 0.26,0 0.32,0.07 0.32,0.33 0,0.85 0,1.7 0,2.56 q 0,10 0,20 a 1.93,1.93 0 0 1 0,0.24 c 0,0.09 -0.07,0.16 -0.17,0.16 h -0.52 -5.75 -0.44 -0.08 c -0.25,0 -0.32,-0.06 -0.32,-0.34 V 262.8 Z"
           style="fill:#ffffff"
           id="path1358" />
      </g>
    </g>
    <g
       id="insta-g">
      <path
         id="insta_circle"
         style="fill:#fba700"
         d="m 403.31998,180.14999 a 47.459999,47.459999 0 0 1 -47.45999,47.46 47.459999,47.459999 0 0 1 -47.46,-47.46 47.459999,47.459999 0 0 1 47.46,-47.46 47.459999,47.459999 0 0 1 47.45999,47.46 z"
         transform="rotate(-76.85,355.88356,180.15366)" />
      <path
         d="m 384.16,164.52 c 0,-7.7 -4.84,-12.68 -12.47,-12.76 q -15.85,-0.15 -31.7,0 c -7.47,0.08 -12.31,5 -12.43,12.49 -0.07,5.27 0,10.55 0,15.82 0,5.27 0,10.32 0,15.48 0.06,7.88 4.87,12.91 12.66,13 q 15.67,0.17 31.36,0 c 7.64,-0.09 12.54,-5.11 12.58,-12.72 q 0.09,-15.65 0,-31.31 z m -5.05,31.39 c -0.05,4.87 -2.68,7.56 -7.55,7.6 q -15.68,0.09 -31.35,0 c -4.9,0 -7.55,-2.72 -7.57,-7.57 q -0.08,-15.81 0,-31.63 c 0,-4.83 2.72,-7.6 7.54,-7.63 q 15.68,-0.12 31.35,0 c 4.84,0 7.53,2.79 7.58,7.61 0.06,5.27 0,10.54 0,15.81 0,5.27 0.06,10.54 0,15.81 z"
         style="fill:#ffffff"
         id="path1363" />
      <path
         d="m 355.9,165.3 a 14.79,14.79 0 1 0 14.69,15 14.76,14.76 0 0 0 -14.69,-15 z m -0.19,24.64 a 10,10 0 0 1 -9.7,-9.74 9.86,9.86 0 0 1 19.72,0 10,10 0 0 1 -10.02,9.74 z"
         style="fill:#ffffff"
         id="path1365" />
      <path
         d="m 375.09,165 a 3.07,3.07 0 0 1 -3.53,3.06 3.1,3.1 0 0 1 -3.22,-3.69 c 0.15,-2.07 1.5,-3 3.57,-3.14 2.09,0.3 3.34,1.5 3.18,3.77 z"
         style="fill:#ffffff"
         id="path1367" />
    </g>
    <g
       id="vPlayer-g">
      <circle
         cx="326.32001"
         cy="258.32999"
         r="32.09"
         transform="rotate(-76.53,326.31698,258.32185)"
         style="fill:#fba700"
         id="video-circle" />
      <polygon
         points="343.73,258.33 314.35,270.64 314.35,246.01 "
         style="fill:#ffffff"
         id="polygon1371" />
    </g>
    <g
       id="heart-g">
      <circle
         cx="201.91"
         cy="265.98001"
         r="22.76"
         transform="rotate(-22.17,201.96629,266.01333)"
         style="fill:#37474f"
         id="heart-circle" />
      <path
         d="m 214.6,268.88 c -3.76,7.57 -12.69,12.07 -12.69,12.07 0,0 -8.93,-4.5 -12.68,-12.07 -3.13,-6.32 -1.15,-13.15 3.79,-14.64 7.07,-2.14 8.89,10.19 8.89,10.19 0,0 1.81,-12.33 8.9,-10.19 4.93,1.49 6.92,8.32 3.79,14.64 z"
         style="fill:#ffffff"
         id="path1375" />
    </g>
    <g
       id="tiktok-g">
      <circle
         cx="329.84"
         cy="94.809998"
         r="33.310001"
         transform="rotate(-45,329.83987,94.805852)"
         style="fill:#37474f"
         id="circle1377" />
      <g
         id="freepik--QfoS7x.tif--inject-4">
        <path
           d="m 339.54,81.18 a 7.35,7.35 0 0 0 0.58,0.91 h 0.05 a 7.54,7.54 0 0 1 -0.63,-0.91 z m 0.64,1 v 0 l 0.35,0.25 z m 5.65,6 v -2.59 a 9.05,9.05 0 0 1 -1,-0.24 9.44,9.44 0 0 1 -1.69,-0.67 8.16,8.16 0 0 1 -1.49,-1 6.11,6.11 0 0 1 -0.7,-0.64 l -0.1,-0.11 -0.09,-0.09 a 4.8,4.8 0 0 1 -0.55,-0.71 0.84,0.84 0 0 1 -0.24,-0.16 9.55,9.55 0 0 1 -1.05,-1.06 9.18,9.18 0 0 1 -1.25,-1.91 10.18,10.18 0 0 1 -0.76,-2.15 c -0.07,-0.27 -0.12,-0.54 -0.18,-0.81 v 0 0 0 -0.07 h -5.08 c -0.12,0 -0.14,0 -0.14,0.14 v 24.1 c 0,0.7 0,1.41 0,2.11 0,0.4 0,0.8 -0.08,1.2 a 9.44,9.44 0 0 1 -0.28,1.5 3,3 0 0 1 -0.3,0.62 5.94,5.94 0 0 1 -1.08,1.36 5.46,5.46 0 0 1 -2.66,1.33 l -0.62,0.08 c -0.2,0 -0.41,0 -0.61,0 a 5.64,5.64 0 0 1 -2.07,-0.43 5.19,5.19 0 0 1 -1.33,-0.77 4.19,4.19 0 0 1 -1.07,-1.31 10.6,10.6 0 0 1 -0.44,-1.15 5.42,5.42 0 0 0 0.42,1.1 v 0 a 2.42,2.42 0 0 1 -0.42,-0.29 v 0 a 4.28,4.28 0 0 1 -0.45,-0.4 4.41,4.41 0 0 1 -0.94,-1.51 7.08,7.08 0 0 1 -0.28,-1 5.6,5.6 0 0 1 -0.1,-0.81 c 0,-0.16 0,-0.33 0,-0.49 a 6.63,6.63 0 0 1 0.27,-1.71 5.31,5.31 0 0 1 0.79,-1.6 4.91,4.91 0 0 1 1.45,-1.31 5.68,5.68 0 0 1 1.68,-0.67 7,7 0 0 1 0.78,-0.12 7.23,7.23 0 0 1 1.23,0 4.89,4.89 0 0 1 0.85,0.08 c 0.12,0 0.14,0 0.14,-0.12 v -5.55 c -0.42,0 -0.84,0 -1.27,0 a 14.71,14.71 0 0 0 -1.47,0.17 13.05,13.05 0 0 0 -1.61,0.4 10.67,10.67 0 0 0 -1.11,0.44 11,11 0 0 0 -1.61,0.9 c -0.37,0.25 -0.71,0.52 -1,0.8 a 10.54,10.54 0 0 0 -1,0.93 10.38,10.38 0 0 0 -1.06,1.32 14.4,14.4 0 0 0 -1,1.74 14.05,14.05 0 0 0 -0.58,1.39 16.17,16.17 0 0 0 -0.55,2 c -0.06,0.33 -0.1,0.66 -0.14,1 a 14.15,14.15 0 0 0 -0.09,2 c 0,0.38 0.05,0.76 0.09,1.14 a 11.74,11.74 0 0 0 0.33,1.77 12.63,12.63 0 0 0 0.62,1.79 11.7,11.7 0 0 0 1,1.87 c 0.09,0.14 0.19,0.28 0.27,0.43 0.08,0.15 0.52,0.62 0.82,0.94 -0.22,-0.24 -0.42,-0.49 -0.63,-0.73 a 0.06,0.06 0 0 1 0,-0.06 l 0.09,0.06 a 2.31,2.31 0 0 1 0.24,0.2 v 0 a 13,13 0 0 0 1.07,0.76 11.66,11.66 0 0 0 1.47,0.81 15,15 0 0 0 2,0.76 9.4,9.4 0 0 0 1,0.21 l 0.92,0.15 a 3.15,3.15 0 0 0 0.43,0 12.81,12.81 0 0 0 1.39,0.07 c 0.4,0 0.79,0 1.19,-0.09 a 10.89,10.89 0 0 0 1.39,-0.23 10.28,10.28 0 0 0 2,-0.66 10.54,10.54 0 0 0 2.12,-1.25 10.4,10.4 0 0 0 1.47,-1.34 9.91,9.91 0 0 0 1,-1.19 11.83,11.83 0 0 0 1.06,-1.82 13.77,13.77 0 0 0 0.82,-2.22 c 0.12,-0.42 0.22,-0.85 0.3,-1.28 0.08,-0.43 0.1,-0.62 0.15,-0.94 a 4.53,4.53 0 0 0 0.05,-0.53 c 0.14,-2.41 0,-4.82 0.06,-7.23 0.06,-2.41 0,-4.83 0,-7.25 V 87.5 l 0.25,0.21 a 10,10 0 0 0 1.24,0.89 c 0.39,0.24 0.79,0.45 1.2,0.65 a 17.41,17.41 0 0 0 2.22,0.83 c 0.54,0.16 1.1,0.3 1.66,0.41 0.56,0.11 0.86,0.16 1.29,0.21 0.26,0 0.52,0.06 0.79,0.08 h 0.52 c 0.1,0 0.11,0 0.11,-0.11 z m -29.6,22.29 z m 0.09,0.07 v 0 c 0,0 0.02,0.03 0,0.02 z m 0.66,0.8 v 0.06 z m 16.59,-35.42 z m 3.16,0 a 0.15,0.15 0 0 0 0,0.07 z"
           style="fill:#fefefe"
           id="path1379" />
        <path
           d="m 347.43,92.39 c 0,0.09 0,0.12 -0.12,0.12 -0.38,0 -0.75,-0.05 -1.13,-0.09 -0.38,-0.04 -0.6,-0.07 -0.9,-0.12 -0.3,-0.05 -0.67,-0.13 -1,-0.2 a 16.41,16.41 0 0 1 -1.94,-0.54 13.79,13.79 0 0 1 -1.5,-0.6 12.09,12.09 0 0 1 -1.75,-1 10.14,10.14 0 0 1 -0.91,-0.71 c 0,0 0,0 0,0 0,1 0,2 0,3 q 0,5.34 0,10.66 A 10,10 0 0 1 338.1,104 c 0,0.24 -0.06,0.48 -0.1,0.72 -0.04,0.24 -0.12,0.69 -0.19,1 -0.07,0.31 -0.24,0.93 -0.39,1.39 a 15.26,15.26 0 0 1 -0.66,1.62 12.93,12.93 0 0 1 -1.08,1.83 7.46,7.46 0 0 1 -0.61,0.78 c -0.18,0.22 -0.38,0.44 -0.59,0.65 a 11.81,11.81 0 0 1 -0.91,0.82 c -0.3,0.23 -0.6,0.45 -0.91,0.65 a 11.67,11.67 0 0 1 -1.68,0.88 12.69,12.69 0 0 1 -1.58,0.52 c -0.33,0.08 -0.66,0.14 -1,0.19 -0.34,0.05 -0.67,0.09 -1,0.13 -0.09,0 -0.19,0 -0.28,0 h -1.32 c 0,0 -0.06,0 -0.09,0 a 7.89,7.89 0 0 1 -1.09,-0.11 l -0.86,-0.13 a 8.46,8.46 0 0 1 -1.85,-0.51 c -0.35,-0.13 -0.71,-0.28 -1.05,-0.44 a 13.81,13.81 0 0 1 -1.72,-1 10.41,10.41 0 0 1 -0.92,-0.68 13.41,13.41 0 0 1 -1.11,-1 v 0 0 -0.06 c -0.3,-0.32 -0.83,-0.92 -0.82,-0.94 a 1.84,1.84 0 0 1 0.28,0.21 l 0.24,0.2 v 0 a 13,13 0 0 0 1.07,0.76 11.66,11.66 0 0 0 1.47,0.81 15,15 0 0 0 2,0.76 9.4,9.4 0 0 0 1,0.21 l 0.92,0.15 a 3.15,3.15 0 0 0 0.43,0 12.81,12.81 0 0 0 1.39,0.07 c 0.4,0 0.79,0 1.19,-0.09 a 10.89,10.89 0 0 0 1.39,-0.23 10.28,10.28 0 0 0 2,-0.66 10.54,10.54 0 0 0 2.12,-1.25 10.4,10.4 0 0 0 1.47,-1.34 9.91,9.91 0 0 0 1,-1.19 11.83,11.83 0 0 0 1.06,-1.82 13.77,13.77 0 0 0 0.82,-2.22 c 0.12,-0.42 0.22,-0.85 0.3,-1.28 0.08,-0.43 0.1,-0.62 0.15,-0.94 a 4.53,4.53 0 0 0 0.05,-0.53 c 0.14,-2.41 0,-4.82 0.06,-7.23 0.06,-2.41 0,-4.83 0,-7.25 v 0.05 l 0.25,0.21 a 10,10 0 0 0 1.24,0.89 c 0.39,0.24 0.79,0.45 1.2,0.65 a 17.41,17.41 0 0 0 2.22,0.83 c 0.54,0.16 1.1,0.3 1.66,0.41 0.56,0.11 0.86,0.16 1.29,0.21 0.26,0 0.52,0.06 0.79,0.08 h 0.52 c 0.1,0 0.11,0 0.11,-0.11 v -5.1 0 a 2.44,2.44 0 0 0 0.47,0.09 c 0.24,0 0.49,0.07 0.73,0.09 0.24,0.02 0.21,0 0.31,0 0.1,0 0.07,0 0.07,0.08 0,0.08 0,0 0,0 -0.13,2.23 -0.14,4.4 -0.13,6.56 z"
           style="fill:#455a64"
           id="path1381" />
        <path
           d="m 326.36,90.35 v 0 c -0.42,0 -0.84,0 -1.27,0 a 14.71,14.71 0 0 0 -1.47,0.17 13.05,13.05 0 0 0 -1.61,0.4 10.67,10.67 0 0 0 -1.11,0.44 11,11 0 0 0 -1.61,0.9 c -0.37,0.25 -0.71,0.52 -1,0.8 a 10.54,10.54 0 0 0 -1,0.93 10.38,10.38 0 0 0 -1.06,1.32 14.4,14.4 0 0 0 -1,1.74 14.05,14.05 0 0 0 -0.58,1.39 16.17,16.17 0 0 0 -0.55,2 c -0.06,0.33 -0.1,0.66 -0.14,1 a 14.15,14.15 0 0 0 -0.09,2 c 0,0.38 0.05,0.76 0.09,1.14 a 11.74,11.74 0 0 0 0.33,1.77 12.63,12.63 0 0 0 0.62,1.79 11.7,11.7 0 0 0 1,1.87 c 0.09,0.14 0.19,0.28 0.27,0.43 l -0.26,-0.23 a 10.41,10.41 0 0 1 -1.21,-1.36 12.47,12.47 0 0 1 -1,-1.53 11.9,11.9 0 0 1 -0.89,-2.12 12.15,12.15 0 0 1 -0.4,-1.66 q -0.07,-0.49 -0.12,-1 a 1.81,1.81 0 0 0 0,-0.4 v -1.58 c 0,0 0,0 0,-0.07 a 7.32,7.32 0 0 1 0.09,-0.93 13.86,13.86 0 0 1 0.92,-3.47 13.35,13.35 0 0 1 1.35,-2.46 12.19,12.19 0 0 1 0.76,-1 9.07,9.07 0 0 1 1,-1 11.68,11.68 0 0 1 1.88,-1.41 11,11 0 0 1 2.27,-1 9.88,9.88 0 0 1 1.69,-0.4 l 0.95,-0.12 a 11.17,11.17 0 0 1 1.53,0 9.39,9.39 0 0 1 1.19,0.1 2.73,2.73 0 0 0 0.4,0 c 0.08,0 0.11,0 0.11,0.12 -0.08,0.49 -0.08,0.96 -0.08,1.43 z"
           style="fill:#fba700"
           id="path1383" />
        <path
           d="m 336.73,75.94 h -5.08 c -0.12,0 -0.14,0 -0.14,0.14 v 24.1 c 0,0.7 0,1.41 0,2.11 0,0.4 0,0.8 -0.08,1.2 a 9.44,9.44 0 0 1 -0.28,1.5 3,3 0 0 1 -0.3,0.62 5.94,5.94 0 0 1 -1.08,1.36 5.46,5.46 0 0 1 -2.66,1.33 l -0.62,0.08 c -0.2,0 -0.41,0 -0.61,0 a 5.64,5.64 0 0 1 -2.07,-0.43 5.19,5.19 0 0 1 -1.33,-0.77 4.19,4.19 0 0 1 -1.07,-1.31 l 0.25,0.14 a 5.92,5.92 0 0 0 3.21,0.68 5.53,5.53 0 0 0 2.14,-0.6 5.38,5.38 0 0 0 1,-0.69 5.53,5.53 0 0 0 1.19,-1.4 3.36,3.36 0 0 0 0.52,-1.37 l 0.15,-1 c 0,-0.2 0,-0.41 0,-0.62 0,-0.21 0,-0.71 0,-1.06 v -25.6 c 0,0 0,-0.08 0.07,-0.07 h 6.41 c 0.17,0 0.17,0 0.17,0.16 a 7.85,7.85 0 0 0 0.13,1.37 0.57,0.57 0 0 1 0.08,0.13 z"
           style="fill:#fba700"
           id="path1385" />
        <path
           d="m 328,91.88 v 5.72 c 0,0.14 0,0.14 -0.14,0.11 a 3.44,3.44 0 0 0 -0.45,0 h -0.66 a 7.11,7.11 0 0 0 -1.72,0.16 5.37,5.37 0 0 0 -2.45,1.2 5,5 0 0 0 -1.12,1.42 5.45,5.45 0 0 0 -0.54,1.51 q -0.06,0.33 -0.09,0.66 a 6,6 0 0 0 0,0.85 5.3,5.3 0 0 0 0.14,1 l 0.06,0.26 a 10.6,10.6 0 0 0 0.44,1.15 v 0 a 3.12,3.12 0 0 1 -0.45,-0.29 4.28,4.28 0 0 1 -0.45,-0.4 4.41,4.41 0 0 1 -0.94,-1.51 7.08,7.08 0 0 1 -0.28,-1 5.6,5.6 0 0 1 -0.1,-0.81 c 0,-0.16 0,-0.33 0,-0.49 a 6.63,6.63 0 0 1 0.27,-1.71 5.31,5.31 0 0 1 0.79,-1.6 4.91,4.91 0 0 1 1.45,-1.31 5.68,5.68 0 0 1 1.68,-0.67 7,7 0 0 1 0.78,-0.12 7.23,7.23 0 0 1 1.23,0 4.89,4.89 0 0 1 0.85,0.08 c 0.12,0 0.14,0 0.14,-0.12 v -5.62 0 a 0.5,0.5 0 0 0 0.17,0 8.79,8.79 0 0 1 1.14,0.11 1.52,1.52 0 0 0 0.21,0 c 0.07,0 0.08,0 0.08,0.09 z"
           style="fill:#455a64"
           id="path1387" />
        <path
           d="m 340.18,82.15 v 0 a 0.84,0.84 0 0 1 -0.24,-0.16 9.55,9.55 0 0 1 -1.05,-1.06 9.18,9.18 0 0 1 -1.22,-1.93 10.18,10.18 0 0 1 -0.76,-2.15 c -0.07,-0.27 -0.12,-0.54 -0.18,-0.81 v 0 0 0 a 0.2,0.2 0 0 1 0,-0.08 h 1.36 c 0.06,0 0.08,0 0.08,0.08 a 6.63,6.63 0 0 0 0.09,1.18 12.25,12.25 0 0 0 0.41,1.89 10.92,10.92 0 0 0 0.62,1.59 4.47,4.47 0 0 0 0.25,0.49 v 0 a 7.54,7.54 0 0 0 0.63,0.95 v 0 0 z"
           style="fill:#263238"
           id="path1389" />
        <path
           d="m 345.85,84.18 v 1.4 0 a 9.05,9.05 0 0 1 -1,-0.24 9.44,9.44 0 0 1 -1.69,-0.67 8.16,8.16 0 0 1 -1.49,-1 6.11,6.11 0 0 1 -0.7,-0.64 l -0.1,-0.11 a 6.23,6.23 0 0 1 -0.64,-0.8 v 0 l 0.35,0.25 h 0.05 a 8.56,8.56 0 0 0 1.32,0.74 8,8 0 0 0 0.92,0.37 10.86,10.86 0 0 0 1.75,0.42 12.1,12.1 0 0 0 1.21,0.13 c 0.01,0.07 0.02,0.09 0.02,0.15 z"
           style="fill:#fba700"
           id="path1391" />
      </g>
    </g>
    <g
       id="whats-group">
      <circle
         cx="256.82999"
         cy="173.66"
         r="47.5"
         transform="rotate(-76.36,256.84423,173.66295)"
         style="fill:#37474f"
         id="whatsapp_circle" />
      <path
         d="m 226.53,204 c 1.32,-4.74 2.48,-9.14 3.78,-13.5 a 4.89,4.89 0 0 0 -0.36,-3.9 c -9.17,-18.48 3,-40.81 23.53,-43.32 18.89,-2.31 34.87,11.93 34.46,30.71 -0.33,15.4 -13.39,28.67 -28.84,29.36 a 32.72,32.72 0 0 1 -15.1,-2.88 4.86,4.86 0 0 0 -2.9,-0.22 c -4.74,1.13 -9.44,2.4 -14.57,3.75 z m 7.39,-7.17 c 3,-0.78 5.55,-1.52 8.14,-2.06 a 4.34,4.34 0 0 1 2.68,0.35 27.17,27.17 0 0 0 12.26,3.18 c 15.69,0.27 28.33,-14.3 25.34,-29.58 -2.07,-10.57 -8.56,-17.5 -19.05,-19.9 -10.76,-2.46 -19.92,1 -26.43,9.89 -6.36,8.7 -6.53,18.06 -1.33,27.54 a 4.68,4.68 0 0 1 0.38,3 c -0.48,2.42 -1.24,4.81 -1.99,7.56 z"
         style="fill:#ffffff"
         id="path1396" />
      <path
         d="m 244,161 c 2.07,-2.79 4.84,-2.24 6.29,0.84 0.57,1.21 0.7,1.61 1.26,3 0.84,2.08 0.65,3.47 -0.84,4.81 -1.09,1 -1,1.83 -0.24,2.95 a 21.46,21.46 0 0 0 9.24,7.81 2,2 0 0 0 2.8,-0.63 c 2.68,-3.19 2.72,-3.16 6.5,-1.38 l 1.3,0.62 c 2.9,1.39 3.34,4 1,6.3 a 8.5,8.5 0 0 1 -8.53,2.07 c -8.15,-2.07 -14,-7.19 -18.49,-14.05 a 11.67,11.67 0 0 1 -2.32,-6.9 A 10.15,10.15 0 0 1 244,161 Z"
         style="fill:#ffffff"
         id="path1398" />
    </g>
    <g
       id="like-g">
      <circle
         cx="113.08"
         cy="149.23"
         r="22.51"
         transform="rotate(-22.18,113.07867,149.2051)"
         style="fill:#455a64"
         id="like-circle" />
      <g
         id="freepik--xsrjP0--inject-4">
        <path
           d="m 109.66,159.21 c -0.67,-0.42 -1.26,-1 -2.15,-0.94 -0.35,0 -0.27,-0.25 -0.28,-0.43 q 0,-5.07 0,-10.14 a 0.55,0.55 0 0 1 0.28,-0.58 c 2.58,-1.31 3.69,-3.87 5.26,-6.06 a 10.11,10.11 0 0 0 1.85,-7.67 1,1 0 0 1 0.92,-1.26 1.68,1.68 0 0 1 1.93,0.6 13.44,13.44 0 0 1 1.49,4.42 15.24,15.24 0 0 1 -0.46,3.79 c -0.11,0.93 -0.32,1.85 -0.5,2.79 0.23,0.16 0.49,0.08 0.74,0.08 h 8.56 c 1.2,0 1.79,0.34 2,1.14 a 2.29,2.29 0 0 1 -1.3,2.45 c -0.21,0.11 -0.59,0 -0.62,0.35 -0.03,0.35 0.37,0.3 0.57,0.44 1,0.7 0.85,2.16 -0.34,3 -0.29,0.2 -0.85,0.11 -0.86,0.53 -0.01,0.42 0.52,0.34 0.75,0.57 a 1.93,1.93 0 0 1 -0.81,3 4.45,4.45 0 0 0 -0.51,0.19 c -0.14,0.1 -0.28,0.21 0,0.4 a 1.68,1.68 0 0 1 0,3 l -0.38,0.27 a 2.39,2.39 0 0 1 -1.5,0.33 h -13.42 a 1.58,1.58 0 0 1 -1.22,-0.27 z"
           style="fill:#ffffff;fill-rule:evenodd"
           id="path1402" />
        <path
           d="m 96.92,153.3 c 0,-2.15 0,-4.29 0,-6.44 0,-0.43 0,-0.65 0.58,-0.64 q 3.91,0 7.85,0 c 0.51,0 0.59,0.17 0.59,0.63 q 0,6.48 0,13 c 0,0.55 -0.14,0.71 -0.69,0.7 -2.54,0 -5.08,0 -7.62,0 -0.63,0 -0.72,-0.21 -0.71,-0.76 0.08,-2.2 0.01,-4.34 0,-6.49 z"
           style="fill:#ffffff;fill-rule:evenodd"
           id="path1404" />
      </g>
    </g>
    <path
       d="m 136.44,124.31 a 34.82,34.82 0 0 0 58.21,22 l 17.43,2.56 -8.72,-15.07 a 34.84,34.84 0 1 0 -66.92,-9.52 z"
       style="fill:#455a64"
       id="path1418" />
    <g
       id="message-g">
      <path
         d="m 146.87,95.53 a 34.74,34.74 0 0 1 29.19,-9.69 35.16,35.16 0 0 1 14.87,5.58 35.67,35.67 0 0 1 10.91,11.58 35.19,35.19 0 0 1 2.16,31.09 v -0.6 l 8.67,15.1 0.64,1.11 -1.26,-0.19 -17.41,-2.67 0.41,-0.13 a 35.11,35.11 0 0 1 -17.24,8.51 30,30 0 0 1 -4.82,0.5 34.92,34.92 0 0 1 -22.62,-7 37.58,37.58 0 0 1 -3.68,-3.11 40.26,40.26 0 0 1 -3.16,-3.63 35,35 0 0 1 3.4,-46.44 z"
         style="fill:#fba700"
         id="path_message" />
      <path
         d="m 151.67,121.74 a 4.22,4.22 0 1 0 4.22,-4.22 4.22,4.22 0 0 0 -4.22,4.22 z"
         style="fill:#263238"
         id="path1422" />
      <path
         d="m 166.78,121.74 a 4.22,4.22 0 1 0 4.22,-4.22 4.22,4.22 0 0 0 -4.22,4.22 z"
         style="fill:#263238"
         id="path1424" />
      <path
         d="m 181.9,121.74 a 4.22,4.22 0 1 0 4.22,-4.22 4.22,4.22 0 0 0 -4.22,4.22 z"
         style="fill:#263238"
         id="path1426" />
    </g>
    <path
       d="m 409.31,112.71 a 22.39,22.39 0 0 1 -37.42,14.16 l -11.2,1.64 5.61,-9.68 a 22.17,22.17 0 0 1 -1.54,-10.78 22.4,22.4 0 1 1 44.55,4.66 z"
       style="fill:#455a64"
       id="path1428" />
    <g
       id="dote-g">
      <path
         d="m 409.31,112.71 a 22.67,22.67 0 0 1 -4.52,11.35 26.46,26.46 0 0 1 -2,2.33 25.17,25.17 0 0 1 -2.37,2 21.62,21.62 0 0 1 -5.4,3 22.22,22.22 0 0 1 -6,1.44 21.51,21.51 0 0 1 -3.11,0.06 20.24,20.24 0 0 1 -3.1,-0.32 22.61,22.61 0 0 1 -11.08,-5.47 l 0.27,0.08 -11.19,1.72 -0.81,0.12 0.41,-0.71 5.57,-9.71 v 0.38 a 22.62,22.62 0 1 1 43.42,-6.28 z"
         style="fill:#455a64"
         id="path1430" />
      <path
         d="m 399.52,111.06 a 2.71,2.71 0 1 1 -2.71,-2.71 2.72,2.72 0 0 1 2.71,2.71 z"
         style="fill:#ffffff"
         id="path1432" />
      <path
         d="m 389.8,111.06 a 2.71,2.71 0 1 1 -2.71,-2.71 2.71,2.71 0 0 1 2.71,2.71 z"
         style="fill:#ffffff"
         id="path1434" />
      <path
         d="m 380.09,111.06 a 2.71,2.71 0 1 1 -2.71,-2.71 2.72,2.72 0 0 1 2.71,2.71 z"
         style="fill:#ffffff"
         id="path1436" />
    </g>
    <g
       id="people-g">
      <circle
         cx="177.99001"
         cy="60.220001"
         r="22.51"
         style="fill:#fba700"
         id="people_circle" />
      <g
         style="opacity:0.5"
         id="g1444">
        <path
           d="m 188.41,54 a 4.57,4.57 0 1 1 -4.57,-4.56 4.57,4.57 0 0 1 4.57,4.56 z"
           id="path1440" />
        <path
           d="m 191.73,66.58 v 1.67 H 176 v -1.67 a 7.89,7.89 0 0 1 15.78,0 z"
           id="path1442" />
      </g>
      <path
         d="m 176.72,56.75 a 4.57,4.57 0 1 1 -4.57,-4.56 4.57,4.57 0 0 1 4.57,4.56 z"
         style="fill:#ffffff"
         id="path1446" />
      <path
         d="M 180,69.33 V 71 h -15.75 v -1.67 a 7.9,7.9 0 0 1 15.79,0 z"
         style="fill:#ffffff"
         id="path1448" />
    </g>
  </g>
  <g
     id="freepik--Character--inject-4"
     sodipodi:insensitive="true"
     style="display:inline">
    <path
       d="m 149.93,456.31 c 0.73,-2.08 38.82,-50.29 41.37,-51.18 0.3,-0.12 16.62,12 16.62,12 0.67,0.92 32.31,-5.08 32.31,-5.08 l -0.48,38 -57.36,-2.42 c 0,0 -7.84,4.4 -15,8 v 0 a 87.11,87.11 0 0 1 -9.42,4.33 c -2.92,0.67 -8.79,-1.59 -8.04,-3.65 z"
       style="fill:#ad6359"
       id="path1459" />
    <path
       d="m 157.93,460 a 82.22,82.22 0 0 0 9.42,-4.34 v 0 c 7.16,-3.57 15,-8 15,-8 l 12.77,0.54 20.66,-31.84 c -4.4,0.68 -7.69,1.08 -7.9,0.78 0,0 -16.32,-12.13 -16.61,-12 -2.56,0.89 -40.65,49.1 -41.38,51.17 -0.73,2.07 5.16,4.33 8.04,3.69 z"
       style="fill:#ffffff"
       id="path1461" />
    <path
       d="m 149.59,456.36 c 0.77,-2.13 39,-50.31 41.65,-51.22 1,-0.35 9,4.82 16.68,12 l -24.7,31 c 0,0 -22.43,11.29 -25.41,12 -2.98,0.71 -9,-1.65 -8.22,-3.78 z"
       style="fill:#fba700"
       id="path1463" />
    <path
       d="m 152.06,457.2 c 6.61,-7.91 32.53,-40.48 38.47,-48.81 0,-0.07 0,-0.1 -0.05,0 -6.73,7.71 -32.38,40.48 -38.55,48.75 -0.13,0.13 -0.01,0.23 0.13,0.06 z"
       style="fill:#263238"
       id="path1465" />
    <path
       d="m 162,458.44 a 8.29,8.29 0 0 0 1.87,-6.4 8.06,8.06 0 0 0 -2.88,-5.23 c -0.05,0 -0.12,0.06 -0.08,0.1 a 9.56,9.56 0 0 1 1,11.45 c -0.05,0.07 0.09,0.14 0.09,0.08 z"
       style="fill:#263238"
       id="path1467" />
    <path
       d="m 180.4,450.07 c 2.61,-3.2 4.45,-7.85 3.4,-12 0,-0.16 -0.27,-0.1 -0.3,0 a 57,57 0 0 1 -3.5,11.74 0.26,0.26 0 0 0 0.4,0.26 z"
       style="fill:#263238"
       id="path1469" />
    <path
       d="m 177.44,451.79 c 2.62,-3.2 4.45,-7.85 3.4,-12 0,-0.16 -0.26,-0.1 -0.29,0 a 57.29,57.29 0 0 1 -3.55,11.74 0.26,0.26 0 0 0 0.44,0.26 z"
       style="fill:#263238"
       id="path1471" />
    <path
       d="m 174.49,453.51 c 2.61,-3.19 4.45,-7.85 3.4,-11.95 0,-0.16 -0.27,-0.1 -0.3,0 a 56.64,56.64 0 0 1 -3.54,11.66 0.26348624,0.26348624 0 0 0 0.44,0.29 z"
       style="fill:#263238"
       id="path1473" />
    <path
       d="m 171.53,455.24 c 2.62,-3.2 4.45,-7.85 3.4,-12 0,-0.16 -0.26,-0.1 -0.29,0 a 56.94,56.94 0 0 1 -3.55,11.76 0.26,0.26 0 0 0 0.44,0.24 z"
       style="fill:#263238"
       id="path1475" />
    <path
       d="m 196.56,416.54 c 2.87,-3.64 -2.77,-8.1 -5.65,-4.46 -2.88,3.64 2.78,8.1 5.65,4.46 z"
       style="fill:#263238"
       id="path1477" />
    <path
       d="m 186.25,460.41 c 2.66,-0.56 3,-3.67 2.36,-5.8 a 21.6,21.6 0 0 0 -5.93,-9.5 0.11,0.11 0 0 0 -0.18,0 0.5,0.5 0 0 0 -0.72,0.37 c -0.23,3.57 -0.93,7.35 -0.06,10.88 0.5,2.09 2.02,4.58 4.53,4.05 z M 182.53,451 c 0.07,-1.76 0.23,-3.5 0.24,-5.26 a 65.11,65.11 0 0 1 3.34,5.63 23.39,23.39 0 0 1 1.25,2.91 c 0.51,1.55 0.69,6.87 -3.08,4.4 -2.08,-1.37 -1.84,-5.6 -1.75,-7.68 z"
       style="fill:#263238"
       id="path1479" />
    <path
       d="m 187.85,436.13 c -2.66,2.47 -4.17,6 -5.93,9.11 a 0.5,0.5 0 0 0 0.39,0.71 0.11,0.11 0 0 0 0.13,0.12 21.67,21.67 0 0 0 10.19,-4.66 c 1.68,-1.44 3.13,-4.21 1.22,-6.14 -1.91,-1.93 -4.44,-0.59 -6,0.86 z m 3.39,-0.49 c 4.51,0 1.43,4.35 0.15,5.36 a 23.21,23.21 0 0 1 -2.64,1.75 63.87,63.87 0 0 1 -5.89,2.85 c 1,-1.47 1.79,-3 2.7,-4.52 1.08,-1.79 3.2,-5.45 5.68,-5.44 z"
       style="fill:#263238"
       id="path1481" />
    <path
       d="M 242.09,403 268,401 c 0,0 37.36,-10.83 59,-5.16 24.76,6.5 28.25,35.42 3.08,47 -24.9,11.47 -134.51,7.24 -134.51,7.24 l 23.5,-34.8 c 0,0 36.09,-8.47 67.68,-6.75 l -44.73,5.15 z"
       style="fill:#37474f"
       id="path1483" />
    <path
       d="m 242.35,410.39 c 3.85,-0.63 7.74,-0.95 11.63,-1.31 3.89,-0.36 7.84,-0.64 11.76,-0.89 7.83,-0.49 15.69,-0.65 23.53,-0.36 l 2.2,0.12 a 3.88,3.88 0 0 1 0.49,-0.11 c 0.37,-0.08 0.75,-0.17 1.13,-0.24 0.71,-0.12 1.43,-0.2 2.14,-0.3 1.49,-0.2 3,-0.32 4.46,-0.57 a 0.07,0.07 0 0 1 0,0.14 c -1.49,0.3 -3,0.7 -4.45,1 l -1.29,0.25 c 2.87,0.21 5.74,0.49 8.6,0.81 0.09,0 0.09,0.15 0,0.14 -3.9,-0.31 -7.83,-0.42 -11.74,-0.43 -3.91,-0.01 -7.77,0 -11.65,0.13 -7.86,0.28 -15.71,0.82 -23.54,1.48 -4.39,0.37 -8.8,0.82 -13.21,0.91 -0.41,0 -0.49,-0.7 -0.06,-0.77 z"
       style="fill:#263238"
       id="path1485" />
    <path
       d="m 206.71,449.28 c 1.44,-2.21 2.69,-4.58 4,-6.87 l 4,-6.88 c 2.67,-4.57 12.25,-19.94 13.19,-21 0.06,-0.07 0.18,0 0.15,0.09 -0.47,1.2 -6.46,11.38 -7.83,13.65 -2.76,4.54 -5.65,9 -8.5,13.46 -0.81,1.28 -1.65,2.54 -2.48,3.82 -0.83,1.28 -1.69,2.52 -2.46,3.82 0,0.07 -0.13,-0.01 -0.07,-0.09 z"
       style="fill:#263238"
       id="path1487" />
    <path
       d="m 335.39,463.32 c -0.63,-2.11 -36.4,-52.07 -38.91,-53.09 -0.28,-0.13 -17.17,11.23 -17.17,11.23 -0.7,0.89 -32,-6.6 -32,-6.6 l -1.33,38 57.41,0.31 c 0,0 7.63,4.76 14.62,8.66 v 0 a 82.52,82.52 0 0 0 9.21,4.77 c 2.85,0.8 8.78,-1.18 8.17,-3.28 z"
       style="fill:#ad6359"
       id="path1489" />
    <path
       d="m 327.22,466.58 a 81.81,81.81 0 0 1 -9.2,-4.77 v 0 c -7,-3.9 -14.62,-8.67 -14.62,-8.67 l -12.77,-0.06 -19.14,-32.79 c 4.37,0.9 7.63,1.45 7.86,1.16 0,0 16.87,-11.35 17.16,-11.21 2.51,1 38.27,51 38.91,53.08 0.64,2.08 -5.35,4.08 -8.2,3.26 z"
       style="fill:#ffffff"
       id="path1491" />
    <path
       d="m 335.73,463.39 c -0.67,-2.16 -36.61,-52.1 -39.18,-53.14 -1,-0.4 -9.21,4.39 -17.24,11.21 l 23.21,32.16 c 0,0 21.87,12.38 24.81,13.18 2.94,0.8 9.07,-1.24 8.4,-3.41 z"
       style="fill:#fba700"
       id="path1493" />
    <path
       d="m 333.22,464.11 c -6.23,-8.22 -30.58,-42 -36.12,-50.58 0,-0.07 0,-0.1 0.06,0 6.35,8 30.42,42 36.19,50.51 0.12,0.15 0,0.25 -0.13,0.07 z"
       style="fill:#263238"
       id="path1495" />
    <path
       d="m 323.23,464.88 a 8.26,8.26 0 0 1 -1.56,-6.48 8,8 0 0 1 3.12,-5.09 c 0,0 0.12,0.06 0.07,0.1 a 9.58,9.58 0 0 0 -1.53,11.39 c 0.04,0.07 -0.05,0.14 -0.1,0.08 z"
       style="fill:#263238"
       id="path1497" />
    <path
       d="m 305.25,455.64 c -2.46,-3.31 -4.07,-8.05 -2.83,-12.1 0.05,-0.16 0.27,-0.09 0.29,0 a 57.3,57.3 0 0 0 3,11.81 0.27189152,0.27189152 0 0 1 -0.46,0.29 z"
       style="fill:#263238"
       id="path1499" />
    <path
       d="m 308.12,457.5 c -2.46,-3.31 -4.07,-8.05 -2.83,-12.1 0,-0.16 0.27,-0.09 0.29,0.05 a 57.55,57.55 0 0 0 3,11.82 0.26,0.26 0 0 1 -0.46,0.23 z"
       style="fill:#263238"
       id="path1501" />
    <path
       d="m 311,459.37 c -2.46,-3.32 -4.07,-8.06 -2.83,-12.11 0,-0.16 0.27,-0.09 0.29,0.05 a 57.55,57.55 0 0 0 3,11.82 0.26,0.26 0 0 1 -0.46,0.24 z"
       style="fill:#263238"
       id="path1503" />
    <path
       d="m 313.86,461.23 c -2.46,-3.32 -4.07,-8.06 -2.83,-12.11 0.05,-0.16 0.27,-0.09 0.29,0.05 a 57.55,57.55 0 0 0 3,11.82 0.26,0.26 0 0 1 -0.46,0.24 z"
       style="fill:#263238"
       id="path1505" />
    <path
       d="m 290.69,421.39 c -2.7,-3.77 3.15,-8 5.85,-4.19 2.7,3.81 -3.15,7.96 -5.85,4.19 z"
       style="fill:#263238"
       id="path1507" />
    <path
       d="m 303.63,461.9 c 1,-3.49 0.52,-7.3 0.45,-10.87 a 0.5,0.5 0 0 0 -0.7,-0.41 0.11,0.11 0 0 0 -0.17,0 21.7,21.7 0 0 0 -6.38,9.21 c -0.71,2.1 -0.54,5.22 2.08,5.91 2.62,0.69 4.09,-1.81 4.72,-3.84 z m -2.63,2.15 c -3.89,2.29 -3.45,-3 -2.87,-4.54 a 22,22 0 0 1 1.38,-2.85 c 1.06,-1.92 2.37,-3.66 3.6,-5.46 -0.07,1.76 0,3.51 0,5.26 -0.05,2.1 0,6.33 -2.11,7.59 z"
       style="fill:#263238"
       id="path1509" />
    <path
       d="m 292.51,440.22 c -2,1.84 -0.68,4.68 0.93,6.19 a 21.6,21.6 0 0 0 10,5.14 0.1,0.1 0 0 0 0.13,-0.11 0.5,0.5 0 0 0 0.43,-0.69 c -1.62,-3.18 -2.95,-6.79 -5.5,-9.39 -1.5,-1.51 -4.1,-2.87 -5.99,-1.14 z m 8,6.2 c 0.83,1.55 1.59,3.13 2.48,4.65 -1.94,-1 -3.91,-1.93 -5.75,-3.13 a 24.66,24.66 0 0 1 -2.56,-1.87 c -1.23,-1.08 -4.1,-5.55 0.41,-5.36 2.49,0.11 4.44,3.87 5.43,5.71 z"
       style="fill:#263238"
       id="path1511" />
    <path
       d="m 245.86,403.16 -25.75,-0.68 c 0,0 -26.59,-13.67 -48.43,-9 -25,5.32 -29,36.48 -10.74,48 23.18,14.61 128.06,14.69 128.06,14.69 l -21.64,-39 c 0,0 -34.67,-8.26 -66.31,-8 l 44.44,7.26 z"
       style="fill:#37474f"
       id="path1513" />
    <path
       d="m 268.82,419.68 a 0.71,0.71 0 0 1 0,-0.2 v -0.16 l -0.09,-0.38 a 7.41,7.41 0 0 0 -0.24,-0.76 c -0.09,-0.25 -0.19,-0.49 -0.3,-0.74 a 5.44,5.44 0 0 0 -0.41,-0.69 c 0,0 0,0 -0.06,0 v 0 h -0.06 -0.06 c -3.81,-0.81 -29.76,-5.23 -33.62,-5.78 -3.86,-0.55 -7.8,-1 -11.71,-1.45 -7.79,-0.86 -15.64,-1.39 -23.49,-1.47 h -2.2 l -0.48,-0.13 -1.12,-0.29 c -0.71,-0.15 -1.42,-0.27 -2.13,-0.4 -1.47,-0.27 -3,-0.46 -4.43,-0.78 -0.08,0 -0.12,0.12 0,0.14 1.47,0.37 2.92,0.84 4.39,1.2 l 1.28,0.3 c -2.88,0.08 -5.75,0.23 -8.63,0.41 a 0.07,0.07 0 1 0 0,0.14 c 3.91,-0.12 7.84,0 11.75,0.12 3.91,0.12 7.76,0.36 11.63,0.68 7.83,0.66 15.65,1.57 23.44,2.6 4.37,0.57 30.83,5.15 35.23,5.46 h 0.05 c 0,0.1 0.07,0.2 0.12,0.3 0.05,0.1 0.23,0.48 0.35,0.72 0.12,0.24 0.24,0.46 0.37,0.68 l 0.21,0.32 0.11,0.16 a 1.63,1.63 0 0 1 0.11,0.17 c -0.11,-0.02 0.04,-0.08 -0.01,-0.17 z"
       style="fill:#263238"
       id="path1515" />
    <path
       d="m 280.9,453.62 c -1.34,-2.29 -2.47,-4.71 -3.69,-7.06 l -3.69,-7.07 c -2.45,-4.69 -11.3,-20.5 -12.18,-21.61 -0.06,-0.07 -0.18,0 -0.15,0.09 0.4,1.21 5.91,11.67 7.17,14 2.54,4.67 5.22,9.24 7.85,13.85 0.75,1.32 1.53,2.62 2.3,3.93 0.77,1.31 1.57,2.6 2.27,3.94 0.04,0.08 0.22,0.01 0.12,-0.07 z"
       style="fill:#263238"
       id="path1517" />
    <path
       d="m 196.39,296.3 4,29.59 c 0.21,0.88 -0.3,1.51 -1.12,1.42 l -14.84,-1.7 a 2.44,2.44 0 0 1 -1.89,-1.77 l -3.94,-29.59 c -0.21,-0.88 0.29,-1.51 1.12,-1.42 l 14.84,1.7 a 2.42,2.42 0 0 1 1.83,1.77 z"
       style="fill:#37474f"
       id="path1519" />
    <path
       d="m 194.63,296.08 4,29.59 c 0.21,0.88 -0.29,1.52 -1.12,1.42 l -14.84,-1.7 a 2.44,2.44 0 0 1 -1.89,-1.77 L 176.79,294 c -0.21,-0.88 0.29,-1.51 1.12,-1.42 l 14.84,1.71 a 2.4,2.4 0 0 1 1.88,1.79 z"
       style="fill:#455a64"
       id="path1521" />
    <path
       d="m 190.41,296.93 a 1.27,1.27 0 1 0 1.38,-1.15 1.27,1.27 0 0 0 -1.38,1.15 z"
       style="fill:#263238"
       id="path1523" />
    <path
       d="m 239.37,343.35 c -10.3,17 -31.88,38.1 -39.63,38.85 -3.72,0.36 -10.41,0.51 -14.84,-4.27 -9.65,-10.44 -16.65,-29.2 -17.39,-39.59 -0.26,-3.7 18.22,-9.69 20.51,-6.46 5.37,7.57 11,21.89 12.12,21.92 4,0.12 19.07,-10.34 31.34,-17.74 14.52,-8.74 12,0.51 7.89,7.29 z"
       style="fill:#ad6359"
       id="path1525" />
    <path
       d="m 169.06,319.55 c 2.65,-7.17 4.43,-8.6 3.45,-15.84 -0.65,-4.75 2.11,-7.19 5,-3.13 4.72,6.64 3.25,16.6 1.74,19.91 z"
       style="fill:#ad6359"
       id="path1527" />
    <path
       d="m 168,341.59 c 0,0 -2.2,-10.61 -0.14,-18.53 1.43,-5.47 5.87,-17 22.11,-21.67 3.85,-1.1 10.11,0.07 4.48,4.15 -4,2.9 -7.43,3.52 -9.45,5.63 0,0 7.8,2.43 8.75,6.33 a 74.57,74.57 0 0 1 1.75,10.38 16.92,16.92 0 0 1 -1.91,0.5 c 0,0 0.78,3.68 -2.4,8.45 z"
       style="fill:#ad6359"
       id="path1529" />
    <path
       d="m 170.1,318.06 c 2.45,-1.67 7.7,-5.13 13,-6.45 5.87,-1.48 17.56,-2.74 18.61,1.6 0.76,3.18 -3.66,4.06 -3.66,4.06 0,0 4.94,0.49 5,3.52 0.05,2.76 -3.41,3.23 -3.41,3.23 0,0 3,0.82 2.49,3.48 -0.55,3.21 -6.63,1 -10,3.74 -0.76,0.62 -22.03,-13.18 -22.03,-13.18 z"
       style="fill:#ad6359"
       id="path1531" />
    <path
       d="m 183.61,318.06 a 24.15,24.15 0 0 1 14.33,-0.89 c 0.12,0 0.16,0.15 0.05,0.14 a 59.26,59.26 0 0 0 -14.37,0.81 c 0,0 -0.04,-0.04 -0.01,-0.06 z"
       style="fill:#263238"
       id="path1533" />
    <path
       d="m 185.27,323.94 c 2.32,-0.8 9.09,-1.75 14.36,0 0.12,0 0.15,0.15 0,0.13 a 63.84,63.84 0 0 0 -14.39,0 z"
       style="fill:#263238"
       id="path1535" />
    <path
       d="m 226.38,362 -21.8,-10.75 c 0,0 20.81,-13.64 30.5,-17.7 10.09,-4.23 13.47,-1.92 5.21,10 -8.26,11.92 -13.91,18.45 -13.91,18.45 z"
       style="fill:#fba700"
       id="path1537" />
    <path
       d="m 230.1,357.41 -0.09,0.12 a 44.89,44.89 0 0 0 -4,-2.2 21.6,21.6 0 0 0 -4.12,-1.57 l -0.32,-0.08 -0.44,-0.1 a 13.08,13.08 0 0 0 -5.14,-0.12 14.9,14.9 0 0 0 -4,1.44 l -0.29,-0.15 a 15.68,15.68 0 0 1 4.29,-1.52 13.16,13.16 0 0 1 5.23,0.15 l 0.58,0.14 0.32,0.08 a 22.74,22.74 0 0 1 4,1.58 44.23,44.23 0 0 1 3.98,2.23 z m 13.34,-20 a 18.09,18.09 0 0 0 -4.22,3.1 18.65,18.65 0 0 0 -3.14,4.2 31.77,31.77 0 0 0 -2.18,5 1.07,1.07 0 0 0 -0.07,0.19 c -0.52,1.49 -1,3 -1.46,4.51 0.17,-0.23 0.35,-0.46 0.52,-0.7 0.4,-1.26 0.79,-2.52 1.23,-3.76 a 1.39,1.39 0 0 1 0.06,-0.19 31.56,31.56 0 0 1 2.14,-4.92 17.92,17.92 0 0 1 7.23,-7.24 l 0.36,-0.19 0.15,-0.34 z m -9.26,12.36 h -0.08 -0.2 a 13.3,13.3 0 0 0 -5,0.1 16.84,16.84 0 0 0 -4.82,2.05 18.71,18.71 0 0 0 -2.25,1.6 l -0.19,0.16 a 19.68,19.68 0 0 0 -1.64,1.53 23.43,23.43 0 0 0 -2.1,2.58 l 0.22,0.11 a 23.58,23.58 0 0 1 2.07,-2.51 21,21 0 0 1 1.77,-1.63 l 0.19,-0.16 a 19.8,19.8 0 0 1 2.07,-1.46 16.31,16.31 0 0 1 4.74,-2 13,13 0 0 1 4.9,-0.14 h 0.24 0.05 c 0.45,0.08 0.9,0.17 1.35,0.29 l 0.13,-0.17 c -0.5,-0.12 -0.97,-0.22 -1.45,-0.3 z"
       style="fill:#ffffff"
       id="path1539" />
    <path
       d="m 226.76,357.51 a 16.38,16.38 0 0 0 -1.54,-0.83 l -1.59,-0.83 c -1.07,-0.57 -2.15,-1.11 -3.23,-1.65 -2.17,-1.08 -4.33,-2.16 -6.52,-3.2 -0.6,-0.29 -1.2,-0.57 -1.81,-0.84 -0.61,-0.27 -1.29,-0.52 -1.93,-0.81 0,0 -0.06,0 0,0.06 0.53,0.29 1,0.61 1.57,0.9 0.57,0.29 1.08,0.58 1.63,0.86 l 3.25,1.61 c 2.14,1.05 4.28,2.1 6.44,3.1 l 1.81,0.83 c 0.63,0.29 1.26,0.62 1.92,0.86 0,0.01 0.03,-0.04 0,-0.06 z"
       style="fill:#263238"
       id="path1541" />
    <path
       d="m 240.29,343.53 c -8.3,12 -13.91,18.46 -13.91,18.46 l -9.67,-4.77 26.87,-25.44 c 2.42,0.84 1.72,4.53 -3.29,11.75 z"
       style="opacity:0.1"
       id="path1543" />
    <path
       d="m 215,402.9 c 0.89,1.05 60.6,0.36 60.93,0 0.88,-1 -9.56,-52.49 -20.05,-68.2 -3.54,-5.3 -14.8,-6.38 -18.73,-1.24 C 225.88,348.22 214.23,402 215,402.9 Z"
       style="fill:#fba700"
       id="path1545" />
    <path
       d="m 267.56,364.66 c 0,0 0,0 0,0 a 18.82,18.82 0 0 1 -3.8,2.72 20.37,20.37 0 0 1 -4.88,1.88 15.81,15.81 0 0 1 -5.22,0.37 20.26,20.26 0 0 1 -5.1,-1.14 34.49,34.49 0 0 1 -4.76,-2.15 c -1.69,-0.92 -3.32,-1.94 -4.93,-3 l -0.26,-0.17 c -1.22,-0.8 -2.42,-1.62 -3.63,-2.43 -1.21,-0.81 -2.39,-1.62 -3.61,-2.41 l -0.24,-0.15 c -1.36,-0.87 -2.74,-1.7 -4.18,-2.44 a 1,1 0 0 1 0.05,-0.16 c 1.44,0.75 2.82,1.58 4.18,2.46 l 0.24,0.16 c 1.23,0.79 2.43,1.62 3.63,2.44 1.2,0.82 2.41,1.66 3.64,2.46 a 1.92,1.92 0 0 0 0.26,0.17 l 0.43,0.29 c 1.46,0.94 3,1.84 4.47,2.67 a 32.59,32.59 0 0 0 4.76,2.12 19.16,19.16 0 0 0 5.07,1.11 15.67,15.67 0 0 0 5.15,-0.39 20,20 0 0 0 4.82,-1.9 17.75,17.75 0 0 0 3.53,-2.52 0.94,0.94 0 0 0 0.18,-0.17 0.64,0.64 0 0 0 0.15,-0.14 c 0,0.05 0,0.09 0,0.14 0,0.05 0.04,0.13 0.05,0.18 z m -11.05,-29 a 20.13,20.13 0 0 0 -3,-0.49 4.58,4.58 0 0 0 -0.53,0 2.36,2.36 0 0 0 -0.38,0 14.82,14.82 0 0 0 -4.3,0.41 19.83,19.83 0 0 0 -4.88,1.89 18.09,18.09 0 0 0 -4.22,3.1 18.65,18.65 0 0 0 -3.14,4.2 31.77,31.77 0 0 0 -2.18,5 1.07,1.07 0 0 0 -0.07,0.19 c -0.53,1.51 -1,3.05 -1.48,4.57 -0.37,1.18 -0.76,2.37 -1.2,3.54 a 0.58,0.58 0 0 0 -0.05,0.14 24,24 0 0 1 -3,5.73 16,16 0 0 1 -2.89,3 l -0.25,0.2 -0.56,0.41 a 15.44,15.44 0 0 1 -1.4,0.86 l -0.12,0.43 a 18.39,18.39 0 0 0 1.7,-1 c 0.27,-0.19 0.53,-0.38 0.78,-0.59 l 0.26,-0.21 a 16.73,16.73 0 0 0 2.72,-2.86 23.89,23.89 0 0 0 3,-5.76 c 0,0 0,-0.08 0,-0.13 0.46,-1.19 0.85,-2.41 1.24,-3.61 0.49,-1.54 1,-3.09 1.49,-4.61 a 1.39,1.39 0 0 1 0.06,-0.19 31.56,31.56 0 0 1 2.14,-4.92 17.92,17.92 0 0 1 7.23,-7.24 19.41,19.41 0 0 1 4.82,-1.89 14.66,14.66 0 0 1 4.07,-0.45 h 0.38 0.7 a 19.42,19.42 0 0 1 3.11,0.52 z m -1.69,-2.24 a 16.35,16.35 0 0 0 -2.2,1.7 l -0.18,0.16 q -0.47,0.44 -0.9,0.9 a 18.77,18.77 0 0 0 -3,4.33 52.74,52.74 0 0 0 -3.3,9.92 c -0.33,1.2 -0.67,2.4 -1.07,3.58 a 0.57,0.57 0 0 1 0,0.14 23.18,23.18 0 0 1 -2.78,5.86 16.37,16.37 0 0 1 -2.73,3.08 0.27,0.27 0 0 1 -0.08,0.07 c -0.24,0.21 -0.48,0.41 -0.73,0.6 a 20.17,20.17 0 0 1 -4.51,2.52 13.64,13.64 0 0 1 -5.06,0.9 20.36,20.36 0 0 1 -2.7,-0.24 c -0.14,0 -0.27,0 -0.41,-0.06 q -0.84,-0.14 -1.68,-0.33 l -0.06,0.22 c 0.49,0.11 1,0.22 1.49,0.31 l 0.4,0.07 a 20.9,20.9 0 0 0 3,0.29 13.78,13.78 0 0 0 5.16,-0.89 A 19.64,19.64 0 0 0 238,364 c 0.28,-0.21 0.55,-0.44 0.81,-0.67 l 0.08,-0.07 a 16.54,16.54 0 0 0 2.71,-3.08 23.45,23.45 0 0 0 2.8,-5.87 c 0,0 0,-0.09 0,-0.14 0.41,-1.21 0.75,-2.44 1.09,-3.66 a 51.7,51.7 0 0 1 3.27,-9.87 18.59,18.59 0 0 1 2.91,-4.28 12.11,12.11 0 0 1 1.08,-1.07 0.8,0.8 0 0 1 0.18,-0.15 15.6,15.6 0 0 1 2,-1.56 1.29,1.29 0 0 0 -0.11,-0.12 z m 12.74,31.2 c 0,-0.05 0,-0.1 0,-0.15 h -0.33 a 19.71,19.71 0 0 1 -5.11,-0.89 34.76,34.76 0 0 1 -4.84,-1.91 q -2.34,-1.15 -4.59,-2.48 c -1.5,-0.89 -3,-1.81 -4.45,-2.74 -1.23,-0.77 -2.47,-1.54 -3.73,-2.28 a 2.26,2.26 0 0 0 -0.26,-0.16 50.72,50.72 0 0 0 -5.12,-2.67 21.27,21.27 0 0 0 -4.91,-1.56 h -0.08 -0.2 a 13.24,13.24 0 0 0 -4.86,0.07 c 0,0.09 -0.07,0.17 -0.1,0.26 a 13,13 0 0 1 4.89,-0.14 h 0.24 0.05 a 21.76,21.76 0 0 1 4.9,1.53 50.05,50.05 0 0 1 5.15,2.65 l 0.26,0.16 c 1.25,0.73 2.48,1.48 3.71,2.24 3,1.82 5.91,3.68 9.05,5.22 a 33.42,33.42 0 0 0 4.85,1.95 19.75,19.75 0 0 0 5.11,0.92 h 0.42 a 0.02692582,0 -21.801409 0 0 -0.05,0.02 z m 3.91,15 a 18.48,18.48 0 0 0 -4.51,2.31 52.17,52.17 0 0 0 -7.68,7.09 c -0.86,0.89 -1.74,1.78 -2.66,2.63 l -0.11,0.1 a 23.58,23.58 0 0 1 -5.27,3.79 16.32,16.32 0 0 1 -4.9,1.57 h -0.12 a 20.32,20.32 0 0 1 -5.05,0 13.08,13.08 0 0 1 -3.91,-1.17 l -0.34,-0.16 -0.61,-0.32 a 23.68,23.68 0 0 1 -4.16,-3.1 c -2.22,-2 -4.24,-4.22 -6.53,-6.16 l -0.16,-0.14 c -0.32,-0.27 -0.65,-0.53 -1,-0.79 a 20,20 0 0 0 -4.49,-2.67 l -0.65,-0.25 -0.13,-0.05 c 0,0 0,0.05 0,0.08 v 0 l 0.72,0.29 a 20.35,20.35 0 0 1 4.44,2.7 l 0.94,0.76 0.16,0.14 c 2.27,2 4.29,4.2 6.51,6.24 a 23.85,23.85 0 0 0 4.18,3.15 l 0.45,0.24 0.34,0.17 a 13.28,13.28 0 0 0 4.16,1.31 19.64,19.64 0 0 0 5.25,0 v 0 h 0.11 a 16.76,16.76 0 0 0 4.87,-1.59 23.59,23.59 0 0 0 5.28,-3.79 l 0.11,-0.1 c 0.94,-0.87 1.84,-1.78 2.71,-2.69 a 52.5,52.5 0 0 1 7.63,-7.06 18.74,18.74 0 0 1 4.43,-2.27 2.68,2.68 0 0 0 -0.01,-0.26 z m -10,20.63 c -0.89,-1.5 -1.73,-3 -2.58,-4.54 -0.71,-1.27 -1.42,-2.55 -2.16,-3.8 l -0.15,-0.26 a 49.8,49.8 0 0 0 -3.21,-4.82 21,21 0 0 0 -3,-3.29 1.2,1.2 0 0 0 -0.21,-0.19 l -0.36,-0.31 a 13.25,13.25 0 0 0 -4.61,-2.46 16.66,16.66 0 0 0 -5.21,-0.53 19.23,19.23 0 0 0 -5.16,0.92 17.34,17.34 0 0 0 -1.7,0.63 1.08,1.08 0 0 0 -0.28,0.11 37.5,37.5 0 0 0 -7.2,4.24 l -0.19,0.14 -0.13,0.09 a 76.58,76.58 0 0 1 -8.31,5.61 h -0.05 a 0.65,0.65 0 0 1 0,0.13 0.17,0.17 0 0 1 0,0.07 h 0.05 l 0.12,-0.06 a 78.18,78.18 0 0 0 8.4,-5.61 l 0.13,-0.09 0.15,-0.11 a 37.07,37.07 0 0 1 7.39,-4.27 l 0.27,-0.11 c 0.48,-0.19 1,-0.37 1.47,-0.52 a 20.17,20.17 0 0 1 5.1,-0.91 16.37,16.37 0 0 1 5.13,0.49 13,13 0 0 1 4.55,2.4 4.38,4.38 0 0 1 0.34,0.29 1.24,1.24 0 0 1 0.22,0.19 20.9,20.9 0 0 1 3,3.26 50.47,50.47 0 0 1 3.23,4.81 l 0.15,0.26 c 0.74,1.24 1.46,2.5 2.17,3.75 1.43,2.52 2.84,5.06 4.42,7.49 h 0.14 c -0.65,-0.99 -1.28,-1.99 -1.88,-3 z m -13.51,-0.5 c -0.51,-0.78 -1,-1.57 -1.49,-2.36 a 2.61,2.61 0 0 1 -0.17,-0.28 c -0.38,-0.6 -0.74,-1.19 -1.11,-1.79 -0.77,-1.24 -1.53,-2.48 -2.32,-3.7 l -0.17,-0.25 a 49.78,49.78 0 0 0 -3.4,-4.68 20.91,20.91 0 0 0 -3.77,-3.63 14.65,14.65 0 0 0 -2.14,-1.32 l -0.3,-0.14 a 12.24,12.24 0 0 0 -2.27,-0.8 16.7,16.7 0 0 0 -5.23,-0.31 19.09,19.09 0 0 0 -5.11,1.13 q -0.65,0.24 -1.26,0.51 v 0.2 c 0,0 0,0.05 0,0.08 v 0 0 a 0.27,0.27 0 0 1 0.11,-0.05 c 0.42,-0.19 0.84,-0.36 1.27,-0.51 a 19.76,19.76 0 0 1 5,-1.12 16.18,16.18 0 0 1 5.15,0.27 12.25,12.25 0 0 1 2,0.69 l 0.31,0.14 a 14,14 0 0 1 2.29,1.37 21.19,21.19 0 0 1 3.75,3.58 51.14,51.14 0 0 1 3.45,4.67 c 0,0.08 0.1,0.17 0.16,0.25 0.79,1.21 1.56,2.44 2.32,3.66 l 1.09,1.75 0.18,0.28 c 1.27,2 2.57,4.06 4,6 h 0.14 q -1.23,-1.77 -2.44,-3.64 z M 271.32,379 a 15,15 0 0 0 -3.74,-1.2 20,20 0 0 0 -5.23,-0.25 18,18 0 0 0 -5.12,1.12 18.67,18.67 0 0 0 -4.57,2.56 26.74,26.74 0 0 0 -2.49,2.14 l -0.15,0.14 c -1.68,1.62 -3.19,3.4 -4.73,5.14 -0.83,0.93 -1.67,1.86 -2.55,2.74 l -0.09,0.1 a 23.8,23.8 0 0 1 -5.11,4 l -0.62,0.33 -0.29,0.14 a 16,16 0 0 1 -3.92,1.31 19.83,19.83 0 0 1 -5.16,0.25 13.35,13.35 0 0 1 -4.93,-1.44 23.53,23.53 0 0 1 -4.29,-2.92 c -0.46,-0.38 -0.91,-0.77 -1.36,-1.16 v 0 a 0.17,0.17 0 0 1 0,0.07 0.85,0.85 0 0 1 0,0.17 l 1.31,1.13 a 23.8,23.8 0 0 0 4.31,3 13.77,13.77 0 0 0 5,1.5 19.58,19.58 0 0 0 5.24,-0.24 16.51,16.51 0 0 0 4.21,-1.44 l 0.29,-0.15 c 0.15,-0.07 0.29,-0.15 0.43,-0.23 a 23.55,23.55 0 0 0 5.12,-4 l 0.1,-0.1 c 0.9,-0.91 1.76,-1.85 2.59,-2.8 1.55,-1.75 3.07,-3.54 4.74,-5.14 a 0.92,0.92 0 0 1 0.14,-0.14 27.14,27.14 0 0 1 2.45,-2.1 18.35,18.35 0 0 1 4.5,-2.54 18.09,18.09 0 0 1 5,-1.14 19.9,19.9 0 0 1 5.17,0.22 14.75,14.75 0 0 1 3.83,1.22 1.74,1.74 0 0 0 -0.08,-0.29 z"
       style="fill:#ffffff"
       id="path1547" />
    <path
       d="m 262.19,337.61 c 24.75,21 46.59,49 43.93,57.41 -2.81,8.91 -21.33,18 -37.27,19.09 -3.27,0.23 -11.87,-24.13 -8.49,-25 2.64,-0.7 14.6,-3.34 16.1,-4.86 1,-1.07 -16.44,-25.44 -21.58,-39.2 -5.37,-14.41 0.68,-13.05 7.31,-7.44 z"
       style="fill:#ad6359"
       id="path1549" />
    <path
       d="m 267.08,388.77 c 0,0 -9.94,0.4 -16.44,1 -3.62,0.32 -9.78,1.42 -12.33,2.87 -3.82,2.17 -18.42,13.69 -15.7,17.28 2.46,3.26 6.74,-1.41 6.74,-1.41 0,0 -5.16,4.67 -1.73,7.15 3.43,2.48 8.45,-4.12 8.45,-4.12 0,0 -5.82,4.57 -1.9,6.86 3.4,2 10,-5 10,-5 0,0 -6.64,4.12 -3.36,6.51 3.63,2.64 14.8,-6.63 14.8,-6.63 8.41,1.46 13.66,1.19 19.72,-0.13 1.08,-0.27 -8.25,-24.38 -8.25,-24.38 z"
       style="fill:#ad6359"
       id="path1551" />
    <path
       d="m 234.49,413.07 c 0.41,-0.5 0.84,-1 1.25,-1.5 a 32.44,32.44 0 0 1 2.55,-2.82 c 0.89,-0.86 1.82,-1.67 2.78,-2.45 0.96,-0.78 2.11,-1.56 3.1,-2.41 0.08,-0.07 0.17,0 0.09,0.11 a 33.6,33.6 0 0 0 -2.81,2.66 c -0.9,0.89 -1.79,1.79 -2.67,2.69 -0.88,0.9 -1.79,1.7 -2.68,2.56 -0.45,0.42 -0.87,0.87 -1.3,1.32 a 11.17,11.17 0 0 1 -1.24,1.24 c -0.05,0 -0.1,0 -0.08,-0.07 a 7.64,7.64 0 0 1 1.01,-1.33 z"
       style="fill:#263238"
       id="path1553" />
    <path
       d="m 228.3,409.48 a 50.5,50.5 0 0 1 4.6,-5.36 35.05,35.05 0 0 1 5.5,-4.44 c 0.07,0 0.15,0.05 0.09,0.11 -1.67,1.67 -3.38,3.31 -5.08,4.95 -0.83,0.8 -4.5,4.56 -4.93,4.91 -0.11,0.08 -0.24,-0.07 -0.18,-0.17 z"
       style="fill:#263238"
       id="path1555" />
    <path
       d="m 240.22,416.61 a 49.7,49.7 0 0 1 4.42,-5 45.85,45.85 0 0 1 5.56,-3.89 c 0.07,0 0.16,0.06 0.09,0.11 -1.75,1.43 -3.51,2.83 -5.19,4.35 -0.82,0.74 -3.91,3.87 -4.75,4.51 a 0.09,0.09 0 0 1 -0.13,-0.08 z"
       style="fill:#263238"
       id="path1557" />
    <path
       d="m 264,365.92 23.53,-6.12 c 0,0 -17.63,-17.57 -26.29,-23.5 -9,-6.19 -12.81,-4.6 -7.13,8.73 5.68,13.33 9.89,20.89 9.89,20.89 z"
       style="fill:#fba700"
       id="path1559" />
    <path
       d="m 266.31,340.21 q -1.43,-0.9 -2.91,-1.71 a 33.4,33.4 0 0 0 -4.76,-2.16 19.89,19.89 0 0 0 -5.11,-1.13 4.58,4.58 0 0 0 -0.53,0 2.36,2.36 0 0 0 -0.38,0 c -0.39,0 -0.79,0 -1.18,0 a 1.15,1.15 0 0 0 0,0.19 c 0.34,0 0.68,0 1,0 h 0.38 0.7 a 20.08,20.08 0 0 1 5.07,1.11 34.75,34.75 0 0 1 4.75,2.12 c 1.19,0.65 2.36,1.34 3.51,2 z m -11,-7.09 a 17.4,17.4 0 0 0 -2.72,2 l -0.18,0.16 q -0.47,0.44 -0.9,0.9 l -0.09,0.1 c 0,0.12 0,0.25 0,0.38 a 3.31,3.31 0 0 1 0.25,-0.3 12.11,12.11 0 0 1 1.08,-1.07 0.8,0.8 0 0 1 0.18,-0.15 17.2,17.2 0 0 1 2.62,-2 z m 27.89,22.48 a 17.53,17.53 0 0 1 -6.18,6.2 17.93,17.93 0 0 1 -3,1.51 l 1.37,-0.35 c 0.61,-0.29 1.21,-0.61 1.79,-1 a 18.48,18.48 0 0 0 4.09,-3.28 17.69,17.69 0 0 0 2.17,-2.92 z"
       style="fill:#ffffff"
       id="path1561" />
    <path
       d="m 275.49,348.29 c -0.24,0.68 -0.46,1.36 -0.68,2 a 52.18,52.18 0 0 1 -3.72,9.76 18.43,18.43 0 0 1 -3.14,4.2 2.4,2.4 0 0 1 -0.24,0.22 15.55,15.55 0 0 0 2.05,-0.1 l -1,0.26 c -0.4,0 -0.81,0 -1.22,0 a 6.2,6.2 0 0 1 -0.48,0.43 l -0.59,0.16 a 6.44,6.44 0 0 0 0.69,-0.6 20.33,20.33 0 0 1 -4.16,-0.62 1.51,1.51 0 0 0 -0.09,-0.18 19.72,19.72 0 0 0 4.31,0.66 h 0.14 a 5.36,5.36 0 0 0 0.43,-0.4 18.35,18.35 0 0 0 3.08,-4.14 52.07,52.07 0 0 0 3.7,-9.72 c 0.23,-0.72 0.46,-1.45 0.72,-2.17 z"
       style="fill:#ffffff"
       id="path1563" />
    <path
       d="m 264.53,361.46 c 0.54,-0.21 1.11,-0.35 1.67,-0.51 l 1.73,-0.49 c 1.16,-0.34 2.33,-0.65 3.5,-1 2.34,-0.61 4.67,-1.24 7,-1.82 l 1.94,-0.45 c 0.69,-0.15 1.38,-0.25 2.06,-0.4 a 0.03,0 -90 0 0 0,0.06 c -0.58,0.17 -1.14,0.39 -1.71,0.57 L 279,358 q -1.74,0.48 -3.51,0.93 c -2.3,0.59 -4.61,1.19 -6.93,1.73 l -1.94,0.45 c -0.68,0.16 -1.36,0.35 -2.05,0.45 -0.06,-0.04 -0.08,-0.09 -0.04,-0.1 z"
       style="fill:#263238"
       id="path1565" />
    <path
       d="m 255.85,351.58 c 0,0 0,-0.09 0.07,-0.05 a 17.12,17.12 0 0 1 1.7,2.26 c -0.17,-0.4 -0.36,-0.79 -0.54,-1.18 -0.56,-1.28 -1.11,-2.57 -1.68,-3.84 0,0 0,-0.08 0.07,0 1.15,2.16 2.38,4.27 3.46,6.46 1.08,2.19 2.16,4.37 3.2,6.58 0.58,1.21 1.2,2.76 1.77,4 0.71,-0.08 1.57,-0.33 2.33,-0.43 0.07,0 0.07,0.1 0,0.11 -0.78,0.21 -1.66,0.6 -2.5,0.74 -0.1,0 -4,-7.77 -5.73,-11.53 -0.74,-1.07 -1.47,-2.08 -2.15,-3.12 z"
       style="fill:#263238"
       id="path1567" />
    <path
       d="m 240.62,342.94 c 3.37,1 9.52,-3.9 12.07,-8 0.17,-0.28 -0.1,-3.36 -0.26,-7.12 -0.09,-2.28 -0.13,-4.82 0,-7.14 0,-0.48 -14.76,2.73 -14.76,2.73 a 37.14,37.14 0 0 1 0.91,9 4.62,4.62 0 0 1 -0.15,0.94 v 0.16 c -0.43,1.79 -1.06,8.49 2.19,9.43 z"
       style="fill:#ad6359"
       id="path1569" />
    <path
       d="m 251.53,320.69 c -0.89,3.89 -3.86,13.24 -11.64,13 a 8.4,8.4 0 0 1 -1.49,-0.16 0.76,0.76 0 0 1 0,-0.16 6.82,6.82 0 0 0 0.16,-0.94 37.38,37.38 0 0 0 -0.92,-9 c 0,0 10.7,-2.34 13.89,-2.74 z"
       style="fill:#263238"
       id="path1571" />
    <path
       d="m 254.36,303.53 c 1.34,5.24 -2.09,20 -5.92,23.19 -5.56,4.58 -14.3,4.63 -18.1,-2 -3.68,-6.39 1.13,-25.6 5.38,-28.43 6.28,-4.14 16.67,-0.5 18.64,7.24 z"
       style="fill:#ad6359"
       id="path1573" />
    <path
       d="m 254.36,303.53 c 1.34,5.24 -2.09,20 -5.92,23.19 -5.56,4.58 -14.3,4.63 -18.1,-2 -3.68,-6.39 1.13,-25.6 5.38,-28.43 6.28,-4.14 16.67,-0.5 18.64,7.24 z"
       style="fill:#ad6359"
       id="path1575" />
    <path
       d="m 239.09,312.14 c 0,0 0.07,0.07 0.06,0.11 -0.26,1 -0.39,2.16 0.44,2.7 0,0 0,0.07 0,0.05 -1.09,-0.4 -0.9,-2 -0.5,-2.86 z"
       style="fill:#263238"
       id="path1577" />
    <path
       d="m 240.22,311.3 c 1.63,0.24 1,3.49 -0.49,3.27 -1.49,-0.22 -0.88,-3.47 0.49,-3.27 z"
       style="fill:#263238"
       id="path1579" />
    <path
       d="m 233.46,311.12 c 0,0 -0.09,0 -0.1,0.08 -0.15,1 -0.5,2.14 -1.47,2.31 0,0 0,0.05 0,0.05 1.11,0.06 1.58,-1.45 1.57,-2.44 z"
       style="fill:#263238"
       id="path1581" />
    <path
       d="m 232.75,309.91 c -1.59,-0.43 -2.32,2.79 -0.84,3.19 1.48,0.4 2.18,-2.84 0.84,-3.19 z"
       style="fill:#263238"
       id="path1583" />
    <path
       d="m 242.18,308.74 c -0.45,-0.12 -0.84,-0.3 -1.27,-0.46 a 2.21,2.21 0 0 1 -1.22,-0.72 0.7,0.7 0 0 1 0.12,-0.84 1.74,1.74 0 0 1 1.75,-0.17 2.54,2.54 0 0 1 1.46,1.11 0.75,0.75 0 0 1 -0.84,1.08 z"
       style="fill:#263238"
       id="path1585" />
    <path
       d="m 231.74,308.2 a 10.24,10.24 0 0 0 1.36,-0.09 2.18,2.18 0 0 0 1.36,-0.36 0.68,0.68 0 0 0 0.11,-0.84 1.71,1.71 0 0 0 -1.63,-0.64 2.57,2.57 0 0 0 -1.71,0.67 0.74,0.74 0 0 0 0.51,1.26 z"
       style="fill:#263238"
       id="path1587" />
    <path
       d="m 239,321.8 c -0.28,0.19 -0.58,0.47 -0.95,0.43 a 2.68,2.68 0 0 1 -1,-0.45 c 0,0 -0.07,0 0,0 a 1.38,1.38 0 0 0 1.17,0.79 1.11,1.11 0 0 0 1,-0.75 c -0.07,-0.01 -0.15,-0.05 -0.22,-0.02 z"
       style="fill:#263238"
       id="path1589" />
    <path
       d="m 238.54,318.59 a 3.51,3.51 0 0 1 -2.57,1.1 4.43,4.43 0 0 1 -1.25,-0.17 l -0.23,-0.07 -0.21,-0.08 a 0.25,0.25 0 0 1 -0.16,-0.26 v 0 a 0.38,0.38 0 0 1 0,-0.1 v 0 -0.09 c 0.12,-0.77 0.42,-1.94 0.42,-1.94 -0.31,0.09 -1.88,0.47 -1.78,0.07 a 52.36,52.36 0 0 1 3.26,-10.12 c 0,-0.1 0.21,0 0.18,0.06 -0.67,3.22 -1.89,6.29 -2.61,9.51 a 6.15,6.15 0 0 1 1.7,-0.19 c 0.11,0.06 -0.6,2.24 -0.63,2.6 v 0 a 4.82,4.82 0 0 0 3.75,-0.44 c 0.13,-0.03 0.2,0.05 0.13,0.12 z"
       style="fill:#263238"
       id="path1591" />
    <path
       d="m 235.25,319.21 a 4.18,4.18 0 0 0 1.4,1.56 1.84,1.84 0 0 0 1.09,0.28 c 0.85,-0.06 1,-0.8 1,-1.45 a 4.28,4.28 0 0 0 -0.18,-1 5.35,5.35 0 0 1 -3.31,0.61 z"
       style="fill:#263238"
       id="path1593" />
    <path
       d="m 236.65,320.77 a 1.84,1.84 0 0 0 1.09,0.28 c 0.85,-0.06 1,-0.8 1,-1.45 a 1.9,1.9 0 0 0 -2.09,1.17 z"
       style="fill:#ff97b8"
       id="path1595" />
    <path
       d="m 253.76,314.46 c -0.95,-0.39 -2.5,-4.28 -3.18,-5.84 -0.68,-1.56 0.43,-8.78 0.73,-10.4 a 11,11 0 0 1 3.11,5.21 c 0.58,2.38 0.26,6.69 -0.66,11.03 z"
       style="opacity:0.2;fill:#263238"
       id="path1597" />
    <path
       d="m 237.72,301.14 a 5.21,5.21 0 0 0 4.31,2.69 5.3,5.3 0 0 0 4.65,-2.28 0.04301163,0 -144.46232 0 0 0.07,0.05 5.27,5.27 0 0 1 -4.73,2.66 5.38,5.38 0 0 1 -4.41,-3.06 c -0.03,-0.07 0.07,-0.13 0.11,-0.06 z"
       style="fill:#263238"
       id="path1599" />
    <path
       d="m 245.61,289.62 a 8.25,8.25 0 0 1 6,5.12 5.85,5.85 0 0 1 -0.21,3.84 c 0,0.05 -0.13,0 -0.11,0 a 6.42,6.42 0 0 0 -1.8,-6.29 8.26,8.26 0 0 0 -7,-2.34 5.23,5.23 0 0 0 -3.21,1.64 c -0.08,0.09 -0.28,0 -0.21,-0.12 1.18,-1.71 3.87,-2.47 6.54,-1.85 z"
       style="fill:#263238"
       id="path1601" />
    <path
       d="m 227.1,292.5 a 6.7,6.7 0 0 1 3.5,-2.94 c 2.05,-0.75 4.07,-0.16 6.06,0.47 0.06,0 0,0.1 0,0.08 a 9.16,9.16 0 0 0 -5.22,-0.47 6.5,6.5 0 0 0 -3.61,2.51 6.37,6.37 0 0 0 1,8.29 6.49,6.49 0 0 0 4.9,1.55 c 0.07,0 0.1,0.09 0,0.1 a 6.51,6.51 0 0 1 -6.63,-9.59 z"
       style="fill:#263238"
       id="path1603" />
    <path
       d="m 254.79,306.57 c 0,0 3.88,-4.73 2.15,-8.27 -1,-2 -5.45,-2.67 -5.45,-2.67 a 8.11,8.11 0 0 0 -4.4,-4.4 c -3.53,-1.59 -8.37,-0.32 -8.37,-0.32 0,0 -3.11,-2.72 -6.78,-1.5 -5.12,1.7 -5.95,8.81 -1.78,12 2.92,2.24 7.91,0.25 7.91,0.25 0.41,0.14 4.22,3.63 8.28,0.42 0,0 2.19,2.91 4.91,1.73 a 3.93,3.93 0 0 0 3.53,2.76 z"
       style="fill:#263238"
       id="path1605" />
    <path
       d="m 250.6,315.54 c 0,0 3.7,-4.59 5.8,-3.24 2.1,1.35 -0.89,8.17 -3.53,8.95 a 2.61,2.61 0 0 1 -3.4,-1.64 z"
       style="fill:#ad6359"
       id="path1607" />
    <path
       d="m 255.49,314.23 a 0.035,0 -90 0 0 0,0.07 c -1.85,0.61 -2.91,2.22 -3.69,3.9 A 1.46,1.46 0 0 1 254,318 c 0,0 0,0.11 -0.06,0.1 a 1.59,1.59 0 0 0 -1.8,0.44 7.61,7.61 0 0 0 -0.95,1.37 c -0.09,0.16 -0.38,0.05 -0.3,-0.13 v 0 c 0.11,-2.39 2.11,-5.48 4.6,-5.55 z"
       style="fill:#263238"
       id="path1609" />
    <path
       d="m 254.43,336.06 a 66.54,66.54 0 0 1 -5.2,5.55 11.12,11.12 0 0 1 -6.27,3.22 c -2.31,0.19 -4.61,-0.31 -5.44,-3.14 a 17,17 0 0 1 -0.1,-7.42 0.09,0.09 0 1 0 -0.17,0 c -0.56,3.69 -1.17,9.42 2.18,10.73 3.75,1.46 7.45,-0.44 10.12,-3 a 35.16,35.16 0 0 0 4.95,-5.85 c 0,0 -0.03,-0.15 -0.07,-0.09 z"
       style="fill:#263238"
       id="path1611" />
  </g>
</svg>
